<svg width="9" height="16" viewBox="0 0 9 16" fill="none" xmlns="http://www.w3.org/2000/svg">
<path d="M7.83816 0.729503L5.93795 0.726562C3.80313 0.726562 3.07314 2.27974 3.07314 3.57807V6.15594H1.16256C0.997463 6.15594 0.86377 6.28503 0.86377 6.44426V8.14117C0.86377 8.3004 0.997615 8.42935 1.16256 8.42935H3.07314V14.9838C3.07314 15.1431 3.20683 15.272 3.37193 15.272H5.21507C5.38016 15.272 5.51385 15.1429 5.51385 14.9838V8.42935H7.74777C7.91286 8.42935 8.04656 8.3004 8.04656 8.14117L8.04747 6.44426C8.04747 6.36781 8.01591 6.29459 7.95997 6.24048C7.90402 6.18638 7.8278 6.15594 7.74853 6.15594H5.51385V3.82228C5.51385 3.45449 5.67529 2.83721 6.55779 2.83721L7.83786 2.83677C8.0028 2.83677 8.1365 2.70768 8.1365 2.5486V1.01767C8.1365 0.858739 8.00296 0.729797 7.83816 0.729503Z" fill="#474442"/>
</svg>
