<svg width="15" height="16" viewBox="0 0 15 16" fill="none" xmlns="http://www.w3.org/2000/svg">
<path fill-rule="evenodd" clip-rule="evenodd" d="M4.24098 0.726562H10.7584C12.9719 0.726562 14.7726 2.5273 14.7725 4.74058V11.258C14.7725 13.4713 12.9719 15.272 10.7584 15.272H4.24098C2.0277 15.272 0.227051 13.4714 0.227051 11.258V4.74058C0.227051 2.5273 2.0277 0.726562 4.24098 0.726562ZM11.4025 5.06605C11.9379 5.06605 12.3719 4.63201 12.3719 4.09659C12.3719 3.56117 11.9379 3.12713 11.4025 3.12713C10.8671 3.12713 10.433 3.56117 10.433 4.09659C10.433 4.63201 10.8671 5.06605 11.4025 5.06605ZM9.98557 7.99929C9.98557 9.37216 8.87265 10.4851 7.49978 10.4851C6.12691 10.4851 5.01398 9.37216 5.01398 7.99929C5.01398 6.62642 6.12691 5.51349 7.49978 5.51349C8.87265 5.51349 9.98557 6.62642 9.98557 7.99929ZM11.3492 7.99929C11.3492 10.1253 9.62576 11.8487 7.49978 11.8487C5.3738 11.8487 3.65035 10.1253 3.65035 7.99929C3.65035 5.87331 5.3738 4.14986 7.49978 4.14986C9.62576 4.14986 11.3492 5.87331 11.3492 7.99929Z" fill="#474442"/>
</svg>
