<svg width="16" height="15" viewBox="0 0 16 15" fill="none" xmlns="http://www.w3.org/2000/svg">
<path d="M1.12878 6.26632L14.8345 0.704786C15.4706 0.462926 16.0261 0.868104 15.82 1.88043L15.8212 1.87918L13.4876 13.4498C13.3146 14.2701 12.8515 14.4696 12.2035 14.0831L8.64973 11.3267L6.93563 13.0646C6.62407 13.3925 6.24431 13.0498 6.27423 12.5985L6.41962 10.4053C6.45284 9.9043 6.67327 9.43412 7.03714 9.08815L13.0576 3.364C13.3442 3.09845 12.9936 2.94885 12.6157 3.21315L5.28427 8.07109C4.77407 8.40915 4.13718 8.495 3.55569 8.30409L0.967681 7.45442C0.205991 7.2001 0.189407 6.6528 1.12878 6.26632Z" fill="#474442"/>
</svg>
