<svg width="15" height="17" viewBox="0 0 15 17" fill="none" xmlns="http://www.w3.org/2000/svg">
<path d="M15 7.28795V4.32053C13.6146 4.32053 12.5573 3.9496 11.875 3.22864C11.1747 2.40583 10.7824 1.36384 10.7656 0.282115V0.0679165L7.96875 0C7.96875 0 7.96875 0.12016 7.96875 0.282115V12.0525C7.87281 12.5784 7.61833 13.0621 7.23966 13.4383C6.86099 13.8145 6.37637 14.0651 5.85122 14.1562C5.32607 14.2474 4.78568 14.1747 4.30299 13.9481C3.82031 13.7214 3.41858 13.3517 3.15204 12.8887C2.8855 12.4258 2.76697 11.892 2.81247 11.3593C2.85796 10.8267 3.06529 10.3209 3.40646 9.91015C3.74763 9.49945 4.20621 9.20363 4.72029 9.06263C5.23438 8.92164 5.77921 8.94225 6.28125 9.1217V6.24831C5.98854 6.2002 5.69245 6.17574 5.39583 6.17517C4.32864 6.17517 3.28541 6.4926 2.39807 7.08733C1.51073 7.68205 0.819133 8.52735 0.410736 9.51634C0.00233784 10.5053 -0.104518 11.5936 0.103682 12.6435C0.311881 13.6934 0.825784 14.6578 1.5804 15.4147C2.33503 16.1717 3.29647 16.6872 4.34316 16.896C5.38985 17.1048 6.47477 16.9977 7.46073 16.588C8.44669 16.1784 9.2894 15.4846 9.88231 14.5946C10.4752 13.7045 10.7917 12.6581 10.7917 11.5876C10.7911 11.3658 10.7772 11.1442 10.75 10.9241V6.14382C12.0218 6.9405 13.5014 7.33884 15 7.28795Z" fill="#474442"/>
</svg>
