<svg width="19" height="11" viewBox="0 0 19 11" fill="none" xmlns="http://www.w3.org/2000/svg">
<path d="M18.5854 9.48618C18.5634 9.44044 18.5429 9.4025 18.5238 9.3721C18.2083 8.82442 17.6055 8.15217 16.7157 7.35518L16.6969 7.33693L16.6875 7.32798L16.6779 7.31881H16.6684C16.2646 6.94768 16.0088 6.69815 15.9017 6.57039C15.7058 6.32703 15.6619 6.08069 15.769 5.83109C15.8446 5.64251 16.1288 5.24425 16.621 4.63578C16.8798 4.3133 17.0848 4.05485 17.2362 3.86013C18.3281 2.4608 18.8015 1.56661 18.6562 1.1772L18.5998 1.08621C18.562 1.03142 18.4641 0.981303 18.3065 0.935596C18.1486 0.889985 17.9467 0.882442 17.7005 0.912839L14.9742 0.930993C14.9301 0.915907 14.867 0.917313 14.7848 0.935596C14.7028 0.953879 14.6617 0.963052 14.6617 0.963052L14.6143 0.985906L14.5766 1.01336C14.545 1.03152 14.5103 1.06345 14.4724 1.10909C14.4347 1.15457 14.4032 1.20795 14.378 1.26878C14.0812 2.00491 13.7437 2.68933 13.365 3.32201C13.1314 3.69927 12.917 4.02621 12.7211 4.30304C12.5255 4.57978 12.3614 4.78367 12.229 4.91437C12.0964 5.04519 11.9767 5.15 11.8692 5.22917C11.7619 5.30837 11.6799 5.34184 11.6232 5.3296C11.5663 5.31735 11.5128 5.30521 11.4621 5.29306C11.3738 5.23828 11.3028 5.16377 11.2492 5.06948C11.1954 4.97519 11.1592 4.85651 11.1403 4.71354C11.1215 4.57048 11.1103 4.44742 11.1071 4.34396C11.1042 4.24062 11.1056 4.09445 11.112 3.90587C11.1185 3.7172 11.1215 3.58954 11.1215 3.52261C11.1215 3.29139 11.1261 3.04045 11.1355 2.76972C11.1451 2.499 11.1528 2.28449 11.1593 2.12647C11.1657 1.96828 11.1687 1.80093 11.1687 1.62449C11.1687 1.44806 11.1575 1.30969 11.1355 1.20926C11.1138 1.10896 11.0804 1.0116 11.0364 0.917217C10.9921 0.822927 10.9273 0.749988 10.8423 0.698208C10.7571 0.646492 10.6512 0.605451 10.5252 0.574959C10.1907 0.501988 9.76473 0.462513 9.24712 0.456377C8.07334 0.444231 7.31912 0.517298 6.98463 0.675482C6.85211 0.742316 6.73218 0.833634 6.62495 0.949148C6.51132 1.08304 6.49547 1.15611 6.5775 1.16813C6.95622 1.22281 7.22433 1.35364 7.38212 1.56047L7.43898 1.67007C7.48321 1.74915 7.52738 1.88914 7.57158 2.08987C7.61571 2.2906 7.64419 2.51264 7.65672 2.75588C7.68822 3.20007 7.68822 3.5803 7.65672 3.8966C7.62512 4.21304 7.59528 4.45937 7.5668 4.63581C7.53832 4.81224 7.49575 4.95521 7.43898 5.06469C7.38212 5.17419 7.34429 5.24112 7.32532 5.26541C7.30639 5.28971 7.29061 5.30502 7.27807 5.31103C7.19604 5.34133 7.11073 5.35676 7.02243 5.35676C6.934 5.35676 6.82678 5.31413 6.70058 5.22891C6.57442 5.1437 6.44348 5.02665 6.30777 4.87758C6.17206 4.72847 6.01901 4.5201 5.84855 4.25245C5.67823 3.98479 5.5015 3.66845 5.31847 3.30344L5.16705 3.03872C5.07238 2.86842 4.94307 2.62045 4.77898 2.29504C4.61479 1.9695 4.46966 1.6546 4.3435 1.35041C4.29307 1.22265 4.2173 1.12539 4.11634 1.05846L4.06896 1.03101C4.03746 1.00671 3.9869 0.980919 3.91753 0.953431C3.84807 0.925975 3.77559 0.906286 3.69979 0.894172L1.10597 0.912327C0.840918 0.912327 0.661076 0.970212 0.56638 1.08582L0.528482 1.14051C0.509549 1.17097 0.5 1.21962 0.5 1.28658C0.5 1.35351 0.518933 1.43565 0.556831 1.53292C0.935481 2.3908 1.34725 3.21816 1.79215 4.01512C2.23705 4.81208 2.62366 5.45406 2.95174 5.94047C3.2799 6.42723 3.61438 6.88663 3.9552 7.31845C4.29602 7.75043 4.52162 8.02726 4.632 8.14888C4.74251 8.27072 4.82931 8.36182 4.89241 8.42264L5.12912 8.64162C5.28058 8.78766 5.50299 8.96256 5.79646 9.16632C6.09 9.37021 6.41497 9.57094 6.77154 9.76882C7.12817 9.96638 7.54306 10.1276 8.01644 10.2523C8.48975 10.3771 8.95043 10.4272 9.39855 10.403H10.4872C10.708 10.3847 10.8753 10.3177 10.989 10.2022L11.0266 10.1565C11.052 10.1202 11.0757 10.0637 11.0976 9.98783C11.1197 9.91179 11.1307 9.82802 11.1307 9.73689C11.1243 9.47534 11.1449 9.23961 11.1921 9.02975C11.2393 8.81994 11.2931 8.66176 11.3532 8.55522C11.4134 8.44879 11.4812 8.35897 11.5567 8.28616C11.6324 8.21319 11.6863 8.16899 11.7179 8.15377C11.7493 8.13846 11.7744 8.12807 11.7934 8.12184C11.9448 8.07319 12.1231 8.12031 12.3284 8.2634C12.5335 8.40637 12.7259 8.5829 12.9059 8.79271C13.0858 9.0027 13.3019 9.2383 13.5543 9.49986C13.8068 9.7615 14.0277 9.956 14.2169 10.0839L14.4062 10.1934C14.5326 10.2665 14.6967 10.3334 14.8987 10.3943C15.1003 10.4551 15.2769 10.4703 15.4286 10.4399L17.852 10.4034C18.0917 10.4034 18.2782 10.3652 18.4105 10.2893C18.543 10.2132 18.6218 10.1295 18.6472 10.0383C18.6725 9.94711 18.6739 9.84362 18.652 9.72791C18.6295 9.61249 18.6074 9.53179 18.5854 9.48618Z" fill="#474442"/>
</svg>
