<svg width="16" height="16" viewBox="0 0 16 16" fill="none" xmlns="http://www.w3.org/2000/svg">
<rect width="16" height="16" rx="3" fill="#F5F4F2"/>
<path d="M6.5763 13.4918H6.66484V13.666H4.16797V13.4918H4.25651C4.33915 13.4918 4.41589 13.4569 4.48672 13.3872C4.55755 13.3175 4.61658 13.2362 4.6638 13.1433C4.72283 13.0504 4.76415 12.9516 4.78776 12.8471C4.81137 12.7309 4.82318 12.6264 4.82318 12.5334V3.24632C4.82318 3.16501 4.81137 3.07208 4.78776 2.96753C4.76415 2.86299 4.72283 2.76425 4.6638 2.67132C4.61658 2.57839 4.55755 2.50288 4.48672 2.4448C4.41589 2.37511 4.33915 2.34026 4.25651 2.34026H4.16797V2.16602H7.24922C8.42977 2.16602 9.3388 2.39253 9.9763 2.84556C10.6256 3.29859 10.9503 3.96652 10.9503 4.84935C10.9503 5.29076 10.8735 5.6799 10.7201 6.01677C10.5784 6.34202 10.3836 6.62662 10.1357 6.87056C9.88776 7.10288 9.59262 7.29455 9.25026 7.44556C8.91971 7.58495 8.56554 7.6895 8.18776 7.7592L9.46276 9.67586C9.7697 10.1405 10.0826 10.5993 10.4013 11.0524C10.7201 11.4938 11.0329 11.9526 11.3398 12.4289C11.4225 12.5451 11.511 12.667 11.6055 12.7948C11.7117 12.9226 11.818 13.0387 11.9242 13.1433C12.0423 13.2478 12.1603 13.335 12.2784 13.4047C12.4082 13.4627 12.5381 13.4918 12.668 13.4918V13.666H11.9065C11.4343 13.666 11.0447 13.5557 10.7378 13.335C10.4426 13.1026 10.1947 12.8355 9.99401 12.5334C9.46276 11.7668 8.93151 10.9885 8.40026 10.1986C7.88082 9.40869 7.36137 8.63041 6.84193 7.86374C6.71207 7.85213 6.5704 7.84051 6.41693 7.82889C6.27526 7.80566 6.1395 7.78243 6.00964 7.7592V12.5334C6.00964 12.6264 6.02144 12.7309 6.04505 12.8471C6.06866 12.9516 6.10408 13.0504 6.1513 13.1433C6.21033 13.2362 6.26936 13.3175 6.32839 13.3872C6.39922 13.4569 6.48186 13.4918 6.5763 13.4918ZM6.00964 2.75844V7.1842H6.09818C6.19262 7.19581 6.34019 7.20743 6.54089 7.21905C6.75339 7.21905 7.01311 7.21905 7.32005 7.21905C7.56797 7.21905 7.82769 7.1842 8.09922 7.1145C8.38255 7.03319 8.64227 6.90541 8.87839 6.73117C9.1263 6.54531 9.327 6.30718 9.48047 6.01677C9.64575 5.72637 9.72839 5.36046 9.72839 4.91904C9.72839 4.47763 9.63984 4.11753 9.46276 3.83874C9.29748 3.55996 9.06137 3.33925 8.75443 3.17662C8.45929 3.01399 8.09922 2.90364 7.67422 2.84556C7.24922 2.78748 6.7829 2.75844 6.27526 2.75844H6.00964Z" fill="#474442"/>
</svg>
