<svg width="176" height="33" viewBox="0 0 176 33" fill="none" xmlns="http://www.w3.org/2000/svg">
<g clip-path="url(#clip0_11976_16000)">
<path d="M38.2723 16.8866C38.2723 16.3482 38.4877 15.7999 38.4877 15.2465C38.4877 14.6931 38.3324 14.1547 38.3224 13.6014C38.3124 13.048 38.4677 12.5046 38.4526 11.9513C38.4376 11.3979 38.4226 10.8595 38.4025 10.3062C38.3825 9.75281 38.1771 9.24432 38.1521 8.69096C37.6635 8.48987 37.1613 8.32328 36.6492 8.19244C36.1482 8.1027 35.6022 8.19244 35.0561 8.16253C34.5101 8.13262 34.0192 8.11267 33.4781 8.09273C32.9371 8.07279 32.4311 8.09273 31.8951 8.09273C31.3591 8.09273 30.8381 7.87837 30.302 7.89333C29.766 7.90828 29.245 8.003 28.714 8.02294C28.183 8.04288 27.657 8.08775 27.131 8.1027C26.605 8.11766 26.0689 8.18247 25.5429 8.19244C25.4127 8.19244 25.2874 8.19244 25.1572 8.19244C24.8316 8.19244 24.5059 8.12265 24.1903 8.1027H23.9599C23.514 8.1027 22.958 8.01796 22.3618 8.01297C21.8609 8.01297 21.3198 8.18745 20.7538 8.18247C20.1877 8.17748 19.6967 8.25725 19.1457 8.26223H17.5426C17.0016 8.26223 16.4605 8.19244 15.9395 8.21238C15.4186 8.23232 14.8424 8.29214 14.3465 8.33202C13.7504 8.38188 13.2193 8.45665 12.7585 8.53143C11.977 8.66105 11.491 8.81559 11.3357 9.02995C11.1408 9.52976 11.034 10.0593 11.0201 10.5953C10.9801 11.049 11.0201 11.5923 10.9951 12.2005C10.965 12.6991 10.8648 13.2325 10.8398 13.8008C10.8147 14.3691 10.7596 14.8527 10.7346 15.411C10.7095 15.9693 10.7797 16.4729 10.7596 17.0212C10.7396 17.5696 10.5643 18.0781 10.5492 18.6215C10.5342 19.1649 10.4941 19.6933 10.4791 20.2317C10.4641 20.7701 10.6594 21.3135 10.6444 21.8419C10.6294 22.3703 10.5192 22.9337 10.5192 23.4322C10.5192 23.9307 10.6043 24.519 10.5943 25.0374C10.5843 25.5559 10.6294 26.1342 10.6244 26.6427C10.6194 27.1512 10.5192 27.7693 10.5192 28.2678C10.5192 28.871 10.3739 29.4144 10.3789 29.8731C10.3657 30.3932 10.4865 30.908 10.7296 31.3686C11.0853 31.8277 11.6061 32.1315 12.1824 32.2161C12.6833 32.3059 13.2895 32.2161 13.9307 32.2759C14.4717 32.3158 15.0529 32.4554 15.659 32.4753C16.2652 32.4953 16.8112 32.3108 17.3973 32.3108C17.9835 32.3108 18.5646 32.3108 19.1357 32.3108C19.7068 32.3108 20.3229 32.4105 20.874 32.3906C21.5052 32.3906 22.0913 32.3009 22.6023 32.2759C23.1813 32.2226 23.7567 32.1361 24.3256 32.0167C24.6061 32.0167 25.1722 32.1962 25.8986 32.2012C26.3595 32.2012 26.9005 32.0416 27.4616 32.0466C28.0227 32.0516 28.4635 32.0466 29.0296 32.0466C29.5957 32.0466 30.0666 32.1314 30.5926 32.1264C31.1186 32.1214 31.6496 32.1264 32.1606 32.1264C32.6716 32.1264 33.2377 32.2061 33.7286 32.1812C34.3047 32.1513 34.8457 32.1264 35.2966 32.0715C35.8443 32.0542 36.3772 31.8906 36.8396 31.598C37.0049 31.4135 36.9748 30.7804 37.1451 29.9528C37.2453 29.4992 37.5209 28.9957 37.616 28.3725C37.6862 27.874 37.6812 27.3207 37.7513 26.7274C37.8064 26.2289 37.8064 25.6656 37.8565 25.0923C37.8565 24.9078 37.9066 24.7184 37.9417 24.524L37.7513 24.5987C37.3255 23.8559 36.9347 23.3724 36.6993 22.9785C36.4208 22.4088 36.0501 21.8884 35.6022 21.4381C35.31 21.9095 35.0698 22.4109 34.8858 22.9337C34.6954 23.507 34.5351 24.1152 34.3849 24.5588C34.1694 25.2817 33.9991 25.855 33.8388 26.2937C33.5082 27.1861 33.2827 27.6945 32.7467 27.6447C32.3159 27.6048 32.0003 27.1462 31.5244 26.2837C31.2939 25.87 31.1286 25.2867 30.798 24.6037C30.6677 24.3395 30.3922 24.0155 30.2519 23.7413C30.0115 24.2946 29.6708 25.0324 29.4504 25.5858C29.1348 26.3735 29.1148 27.0814 28.9144 27.535C28.3784 28.7813 28.0327 28.8062 27.6169 28.8411C27.3013 28.8411 27.166 28.9608 26.5599 27.7294C26.3595 27.3256 26.0589 26.8371 25.7533 26.1292C25.558 25.6307 25.2975 25.1321 25.047 24.4791C24.8516 23.9806 24.6713 23.4073 24.4358 22.7891C24.2404 22.2906 24.1102 21.7921 23.8848 21.1889C24.3857 20.6903 24.3857 20.4959 25.0921 20.5009C25.2824 20.9994 25.3676 21.6924 25.568 22.2108C25.7684 22.7293 26.1591 23.2079 26.3545 23.7064C26.5499 24.2049 26.7352 24.8031 26.9306 25.2817C27.1761 25.8799 27.3614 26.3735 27.5468 26.7773C27.7772 26.2339 28.0477 25.5908 28.2331 25.0673C28.5487 24.2797 28.734 23.6515 28.9495 23.1929C29.4805 21.9466 29.756 21.6375 30.1768 21.6076C30.5976 21.5777 30.9533 21.8968 31.344 22.6047C31.5294 22.9436 31.7498 23.3923 32.0303 23.9656C32.2458 24.4043 32.4512 25.1122 32.7066 25.5808C32.8469 25.1621 33.0273 24.5838 33.1575 24.165C33.3328 23.5718 33.4932 23.0284 33.6585 22.5448C33.8543 22.0172 34.0767 21.4998 34.3247 20.9944C34.6504 20.2317 34.9059 19.8379 35.2064 19.6933C35.507 19.5487 35.8026 19.0153 36.7093 20.1569C36.9999 20.5109 37.2103 21.0991 37.6511 21.7771C37.7914 22.0064 37.9266 22.2357 38.0719 22.495C38.0719 22.2657 38.0719 22.0363 38.0719 21.802C38.102 21.2686 38.2823 20.7302 38.3024 20.1669C38.3224 19.6036 38.1821 19.0751 38.1972 18.5168C38.2122 17.9584 38.2623 17.45 38.2723 16.8866ZM20.4432 16.4529C20.0509 16.755 19.6336 17.0235 19.1958 17.2555C18.8201 17.45 18.3492 17.6045 17.8282 17.8388C17.4224 18.0233 16.9214 18.3373 16.4104 18.5666C16.207 18.4052 16.0508 18.1923 15.9583 17.9503C15.8657 17.7083 15.8402 17.4459 15.8844 17.1907C16.4455 16.9514 17.1368 16.777 17.6929 16.5127C18.2436 16.2237 18.7757 15.9007 19.286 15.5456C18.7499 15.2623 18.1998 15.006 17.6378 14.7779C17.0767 14.5635 16.4605 14.404 15.8945 14.2146C15.8288 13.9746 15.8393 13.7203 15.9245 13.4865C16.0097 13.2527 16.1654 13.0508 16.3704 12.9084C17.0316 13.1278 17.5927 13.1976 18.0786 13.377C18.6297 13.6313 19.1635 13.9211 19.6767 14.2445C20.899 14.8327 21.0393 15.0571 21.0994 15.2415C21.1846 15.5307 21.2447 15.8347 20.4432 16.4529ZM31.7548 15.6702C31.5113 15.0346 31.4021 14.3557 31.4342 13.6762C31.446 12.9921 31.535 12.3115 31.6997 11.6472C32.396 11.8366 32.7517 11.8466 32.9872 12.1806C32.8519 12.6791 32.6365 14.1099 32.9872 14.9972C32.882 15.8198 32.4662 15.6004 31.7548 15.6503V15.6702ZM34.445 15.7949C34.1639 15.2496 34.0115 14.6478 33.9991 14.0351C34.0661 13.2929 34.2347 12.5633 34.5001 11.8665C35.0324 11.9549 35.5427 12.1445 36.003 12.4249C35.9278 12.6542 35.001 13.397 35.001 13.8955C35.001 14.3143 35.9579 14.9424 36.1282 15.2714C35.8176 15.9544 35.1563 15.7301 34.445 15.7749V15.7949Z" fill="#474442"/>
<path d="M10.2186 26.4479C9.63248 26.408 9.02131 26.2435 8.47026 26.1637C7.9192 26.084 7.293 26.1189 6.75698 25.9942C6.22095 25.8696 5.6699 25.5256 5.15391 25.3611C4.63792 25.1966 3.95662 25.1717 3.47069 24.9673C2.95416 24.7297 2.45231 24.4617 1.96781 24.1647C1.08612 23.6961 0.5 23.2773 0.5 23.1327C0.5 22.9882 0.885738 22.4348 1.50192 21.7917C1.82754 21.4727 2.32349 21.2084 2.80441 20.7947C3.19015 20.4856 3.50575 20.0369 4.00671 19.678C4.50767 19.3191 4.92848 19.1496 5.39938 18.8156C5.87028 18.4815 6.21093 18.1276 6.69185 17.8185C7.17277 17.5094 7.54849 17.2452 8.01439 16.9511C7.5877 16.5843 7.18448 16.1914 6.80707 15.7746C6.47143 15.3708 6.22596 14.8174 5.85525 14.3339C5.48454 13.8503 5.25911 13.3717 4.91345 12.8882C4.56779 12.4046 4.03677 12.1005 3.71616 11.6219C3.39554 11.1433 3.27531 10.5351 3.0048 10.0566C2.73428 9.57798 2.39363 9.05952 2.13814 8.561C1.83756 7.99268 1.50192 7.50912 1.32157 7.06544C1.00096 6.28276 0.850671 5.63468 1.06107 5.35551C1.27148 5.07634 1.84257 5.0564 2.59401 4.98661C3.113 4.96014 3.633 4.96014 4.15199 4.98661C4.65295 4.98661 5.15391 4.91682 5.71999 4.9567C6.28608 4.99658 6.72191 5.11124 7.27297 5.17106C7.82402 5.23088 8.30995 5.30068 8.82594 5.37047C9.34193 5.44026 9.87795 5.48513 10.3789 5.55991C10.8799 5.63468 11.4159 5.84406 11.9068 5.92881C12.3978 6.01356 13.0039 6.02353 13.4648 6.11326C14.1111 6.24288 14.597 6.32264 14.9426 6.42235C15.138 6.06341 15.4436 5.68454 15.7492 5.16608C15.9897 4.74732 16.2502 4.28868 16.5157 3.83503C16.7812 3.38137 17.1068 2.98256 17.3973 2.57876C17.7014 2.16699 18.0363 1.7787 18.3993 1.41721C18.9002 0.918686 19.2709 0.465033 19.6316 0.524855C19.9923 0.584677 20.338 1.02337 20.869 1.52189C21.2096 1.84593 21.6254 2.1949 22.0062 2.62861C22.3869 3.06232 22.6574 3.44618 23.0081 3.86992C23.3588 4.29367 23.7946 4.6177 24.1002 5.04145C24.4058 5.46519 24.521 6.08335 24.7915 6.49712C25.1322 6.99564 25.4578 7.35458 25.6431 7.72348C25.1422 8.222 25.1422 8.46129 24.4408 8.54604C24.2104 8.0874 23.9399 7.5141 23.6744 7.07541C23.4089 6.63671 23.0482 6.24288 22.7576 5.82911C22.4671 5.41534 22.2567 4.86198 21.9711 4.48809C21.6207 4.10571 21.2476 3.74447 20.854 3.4063C20.5428 3.0138 20.1121 2.7322 19.6266 2.60368C19.291 2.60368 18.9553 2.95265 18.4944 3.56084C18.1351 3.95718 17.8005 4.37506 17.4925 4.81213C17.232 5.25082 17.0667 5.77926 16.8012 6.26781C16.5357 6.75635 16.3002 7.21499 16.0448 7.68859C15.9345 7.84811 15.8744 7.79826 15.6941 7.87304C15.5265 7.96101 15.3326 7.98579 15.148 7.94283C14.6471 7.79826 14.1461 7.67862 13.55 7.55399C12.9538 7.42936 12.4579 7.48419 11.8918 7.39446C11.3257 7.30473 10.8047 7.21499 10.2537 7.15019C9.70262 7.08538 9.16158 6.89096 8.62055 6.8411C8.07951 6.79125 7.48337 6.72644 6.96237 6.70152C6.3512 6.66662 5.78512 6.75635 5.3042 6.76134C4.4175 6.76134 3.87646 6.85606 3.7412 6.99066C3.50575 7.22496 3.34545 7.73345 3.636 8.48622C3.86329 8.98421 4.13138 9.46274 4.43754 9.91697C4.68301 10.3357 4.96855 10.7994 5.31923 11.2829C5.6198 11.6867 5.97047 12.1005 6.32114 12.5492C6.67182 12.9978 7.10264 13.262 7.49339 13.6858C7.88414 14.1095 8.19974 14.4685 8.60552 14.8673C9.01129 15.2661 9.28682 15.6799 9.70262 16.0637C10.0032 16.5971 10.1785 16.5622 10.1385 17.1904C10.1084 17.5643 9.91803 17.4695 9.63749 17.6889C9.13653 17.978 8.69068 18.3719 8.18471 18.6859C7.67874 19 7.13771 19.2493 6.68183 19.5833C6.22596 19.9173 5.67992 20.2762 5.23907 20.6102C4.71307 20.9991 4.17203 21.2882 3.77126 21.6073C3.27039 21.9723 2.83511 22.419 2.4838 22.9283C2.589 23.2025 3.19516 23.4269 3.93658 23.6662C4.42669 23.8829 4.92841 24.0726 5.43946 24.2345C5.94041 24.3441 6.49147 24.3092 7.04253 24.4089C7.59358 24.5086 8.04444 24.6981 8.60552 24.7828C9.16659 24.8676 9.67256 24.8975 10.1986 24.9623C10.6895 25.5306 10.5192 25.7948 10.2186 26.4479Z" fill="#474442"/>
<path d="M10.2186 26.4479C9.63248 26.408 9.02131 26.2435 8.47026 26.1637C7.9192 26.084 7.293 26.1189 6.75698 25.9942C6.22095 25.8696 5.6699 25.5256 5.15391 25.3611C4.63792 25.1966 3.95662 25.1717 3.47069 24.9673C2.95416 24.7297 2.45231 24.4617 1.96781 24.1647C1.08612 23.6961 0.5 23.2773 0.5 23.1327C0.5 22.9882 0.885738 22.4348 1.50192 21.7917C1.82754 21.4727 2.32349 21.2084 2.80441 20.7947C3.19015 20.4856 3.50575 20.0369 4.00671 19.678C4.50767 19.3191 4.92848 19.1496 5.39938 18.8156C5.87028 18.4815 6.21093 18.1276 6.69185 17.8185C7.17277 17.5094 7.54849 17.2452 8.01439 16.9511C7.5877 16.5843 7.18448 16.1914 6.80707 15.7746C6.47143 15.3708 6.22596 14.8174 5.85525 14.3339C5.48454 13.8503 5.25911 13.3717 4.91345 12.8882C4.56779 12.4046 4.03677 12.1005 3.71616 11.6219C3.39554 11.1433 3.27531 10.5351 3.0048 10.0566C2.73428 9.57798 2.39363 9.05952 2.13814 8.561C1.83756 7.99268 1.50192 7.50912 1.32157 7.06544C1.00096 6.28276 0.850671 5.63468 1.06107 5.35551C1.27148 5.07634 1.84257 5.0564 2.59401 4.98661C3.113 4.96014 3.633 4.96014 4.15199 4.98661C4.65295 4.98661 5.15391 4.91682 5.71999 4.9567C6.28608 4.99658 6.72191 5.11124 7.27297 5.17106C7.82402 5.23088 8.30995 5.30068 8.82594 5.37047C9.34193 5.44026 9.87795 5.48513 10.3789 5.55991C10.8799 5.63468 11.4159 5.84406 11.9068 5.92881C12.3978 6.01356 13.0039 6.02353 13.4648 6.11326C14.1111 6.24288 14.597 6.32264 14.9426 6.42235C15.138 6.06341 15.4436 5.68454 15.7492 5.16608C15.9897 4.74732 16.2502 4.28868 16.5157 3.83503C16.7812 3.38137 17.1068 2.98256 17.3973 2.57876C17.7014 2.16699 18.0363 1.7787 18.3993 1.41721C18.9002 0.918686 19.2709 0.465033 19.6316 0.524855C19.9923 0.584677 20.338 1.02337 20.869 1.52189C21.2096 1.84593 21.6254 2.1949 22.0062 2.62861C22.3869 3.06232 22.6574 3.44618 23.0081 3.86992C23.3588 4.29367 23.7946 4.6177 24.1002 5.04145C24.4058 5.46519 24.521 6.08335 24.7915 6.49712C25.1322 6.99564 25.4578 7.35458 25.6431 7.72348C25.1422 8.222 25.1422 8.46129 24.4408 8.54604C24.2104 8.0874 23.9399 7.5141 23.6744 7.07541C23.4089 6.63671 23.0482 6.24288 22.7576 5.82911C22.4671 5.41534 22.2567 4.86198 21.9711 4.48809C21.6207 4.10571 21.2476 3.74447 20.854 3.4063C20.5428 3.0138 20.1121 2.7322 19.6266 2.60368C19.291 2.60368 18.9553 2.95265 18.4944 3.56084C18.1351 3.95718 17.8005 4.37506 17.4925 4.81213C17.232 5.25082 17.0667 5.77926 16.8012 6.26781C16.5357 6.75635 16.3002 7.21499 16.0448 7.68859C15.9345 7.84811 15.8744 7.79826 15.6941 7.87304C15.5265 7.96101 15.3326 7.98579 15.148 7.94283C14.6471 7.79826 14.1461 7.67862 13.55 7.55399C12.9538 7.42936 12.4579 7.48419 11.8918 7.39446C11.3257 7.30473 10.8047 7.21499 10.2537 7.15019C9.70262 7.08538 9.16158 6.89096 8.62055 6.8411C8.07951 6.79125 7.48337 6.72644 6.96237 6.70152C6.3512 6.66662 5.78512 6.75635 5.3042 6.76134C4.4175 6.76134 3.87646 6.85606 3.7412 6.99066C3.50575 7.22496 3.34545 7.73345 3.636 8.48622C3.86329 8.98421 4.13138 9.46274 4.43754 9.91697C4.68301 10.3357 4.96855 10.7994 5.31923 11.2829C5.6198 11.6867 5.97047 12.1005 6.32114 12.5492C6.67182 12.9978 7.10264 13.262 7.49339 13.6858C7.88414 14.1095 8.19974 14.4685 8.60552 14.8673C9.01129 15.2661 9.28682 15.6799 9.70262 16.0637C10.0032 16.5971 10.1785 16.5622 10.1385 17.1904C10.1084 17.5643 9.91803 17.4695 9.63749 17.6889C9.13653 17.978 8.69068 18.3719 8.18471 18.6859C7.67874 19 7.13771 19.2493 6.68183 19.5833C6.22596 19.9173 5.67992 20.2762 5.23907 20.6102C4.71307 20.9991 4.17203 21.2882 3.77126 21.6073C3.27039 21.9723 2.83511 22.419 2.4838 22.9283C2.589 23.2025 3.19516 23.4269 3.93658 23.6662C4.42669 23.8829 4.92841 24.0726 5.43946 24.2345C5.94041 24.3441 6.49147 24.3092 7.04253 24.4089C7.59358 24.5086 8.04444 24.6981 8.60552 24.7828C9.16659 24.8676 9.67256 24.8975 10.1986 24.9623C10.6895 25.5306 10.5192 25.7948 10.2186 26.4479Z" fill="#474442"/>
<path d="M58.5059 26.5473C57.9247 26.5258 57.3567 26.3687 56.8477 26.0887C56.303 25.8752 55.8256 25.5206 55.4651 25.0617C55.1889 24.5554 55.0088 24.0028 54.934 23.4316C54.8042 22.933 54.7336 22.421 54.7236 21.9061C54.7589 21.3909 54.8428 20.8802 54.9741 20.3806C55.0709 19.871 55.2116 19.3706 55.3949 18.8851C55.5588 18.3867 55.772 17.9058 56.0311 17.4493C56.3111 17.0116 56.648 16.6126 57.0331 16.2628C57.4449 15.9463 57.912 15.708 58.4107 15.5599C58.9153 15.3408 59.4583 15.2222 60.0088 15.211C60.5679 15.1944 61.1253 15.2823 61.6519 15.4702C62.1813 15.6861 62.6759 15.9784 63.1197 16.3376C63.5331 16.66 63.9035 17.0336 64.2218 17.4493C63.9296 17.7162 63.6126 17.9549 63.275 18.1622C62.9368 17.7422 62.5365 17.3758 62.0877 17.0754C61.6196 16.7462 61.087 16.5186 60.5247 16.4074C59.9554 16.2853 59.363 16.3268 58.8165 16.5271C58.3663 16.7732 57.975 17.1133 57.6693 17.5241C57.3181 17.8894 57.0182 18.3002 56.7776 18.7455C56.5451 19.1977 56.3588 19.672 56.2215 20.1613C56.0667 20.6481 55.961 21.1491 55.9059 21.6568C55.8702 22.1689 55.9022 22.6835 56.0011 23.1873C56.139 23.7631 56.4479 24.2843 56.8878 24.6828C57.0948 24.9082 57.3451 25.0899 57.6239 25.2175C57.9026 25.3451 58.2042 25.4158 58.5109 25.4256C58.5409 25.4256 58.571 25.4256 58.6061 25.4256C59.2048 25.3849 59.7976 25.2813 60.3745 25.1166C60.9466 24.959 61.4956 24.7277 62.0076 24.4286C62.55 24.1812 63.0557 23.8608 63.5105 23.4764C63.9553 23.0595 64.3187 22.5643 64.5825 22.0158C64.9565 22.1517 65.3184 22.3185 65.6646 22.5143C65.4433 23.0364 65.1312 23.5157 64.7428 23.9301C64.3559 24.3454 63.9222 24.7151 63.4503 25.0318C62.984 25.3684 62.4796 25.6495 61.9475 25.8693C61.416 26.0726 60.8656 26.2229 60.3043 26.318C59.747 26.437 59.1806 26.5087 58.6111 26.5324C58.5763 26.539 58.5412 26.544 58.5059 26.5473Z" fill="#474442"/>
<path d="M69.0662 25.9248C68.3298 25.9248 68.1294 25.9248 68.0192 25.8351C67.909 25.7453 67.7787 24.9876 67.6385 24.1152C67.5533 23.6167 67.5333 23.0184 67.4631 22.3903C67.393 21.7622 67.2728 21.2587 67.2177 20.6704C67.1626 20.0822 67.0123 19.5039 66.9672 18.9455C66.9221 18.3872 67.0423 17.7092 67.0073 17.2007C66.9421 16.2037 66.9171 15.5057 66.9221 15.4858C66.9271 15.4659 66.8269 15.0122 67.1075 14.8527C67.2127 14.7879 67.373 14.7181 68.7205 14.7031H70.3136C70.7695 14.7031 71.3155 14.7031 71.9066 14.7031C72.4076 14.7031 72.9837 14.7879 73.5698 14.8028C73.6881 14.9911 73.7445 15.2113 73.731 15.433C73.7176 15.6546 73.6349 15.8665 73.4947 16.0392C72.8935 16.0392 72.2473 15.8996 71.6512 15.8896C71.055 15.8796 70.3787 15.9993 69.8227 15.9943C69.0462 15.9943 68.3799 15.9444 67.9841 15.9544C67.9841 16.3532 68.1094 16.9963 68.1645 17.7441C68.2096 18.2875 68.2496 18.8957 68.3098 19.5188C68.3699 20.142 68.3098 20.7153 68.3949 21.2985C68.4801 21.8818 68.5853 22.5299 68.6554 23.0633C68.7556 23.846 68.8708 24.4641 68.951 24.8031C69.4724 24.829 69.995 24.814 70.514 24.7583C71.0149 24.6985 71.5159 24.6536 72.082 24.5738C72.6481 24.4941 73.159 24.2847 73.665 24.1949C73.8123 24.3544 73.9078 24.5544 73.939 24.7687C73.9703 24.9831 73.9359 25.2018 73.8403 25.3964C73.2542 25.5011 72.7232 25.5958 72.2523 25.6706C71.6311 25.7703 71.1151 25.9148 70.6743 25.9697C70.138 26.0045 69.5997 25.9894 69.0662 25.9248Z" fill="#474442"/>
<path d="M68.2396 20.8137C67.9741 20.2853 67.9991 20.2404 68.1895 19.6771C68.6904 19.6422 69.1914 19.6422 69.8176 19.6223C70.4438 19.6023 70.9999 19.5824 71.5309 19.5774C72.4627 19.5774 73.2091 19.5176 73.2742 19.5176C73.3043 20.1108 73.154 20.1108 73.144 20.709C73.144 20.709 72.5028 20.7639 71.561 20.7738C71.06 20.7738 70.4488 20.6642 69.8727 20.6841C69.2966 20.7041 68.7205 20.7788 68.2396 20.8137Z" fill="#474442"/>
<path d="M83.9249 19.3241C83.7406 18.7787 83.457 18.2718 83.0883 17.8286C82.7264 17.3817 82.305 16.9859 81.8359 16.6521C81.3644 16.3094 80.8612 16.0123 80.333 15.7647C79.7993 15.5318 79.2503 15.3353 78.6899 15.1765C78.1252 15.0453 77.5504 14.9619 76.9716 14.9272C76.9029 14.9089 76.8311 14.9053 76.7609 14.9167C76.6907 14.9281 76.6238 14.9542 76.5646 14.9934C76.5053 15.0325 76.4552 15.0838 76.4174 15.1437C76.3796 15.2036 76.355 15.2709 76.3454 15.341C76.24 15.8607 76.1714 16.3871 76.14 16.9163C76.0999 17.3849 76.0097 17.9133 75.9747 18.5215C75.9446 19.0201 75.9747 19.5834 75.9747 20.1367C75.9747 20.6901 75.8294 21.2135 75.8244 21.747C75.8194 22.2804 75.9346 22.8437 75.9546 23.3522C75.9546 23.9454 75.9546 24.4988 76.0248 24.9624C76.135 25.7351 76.3203 26.3084 76.5958 26.458C76.7953 26.5683 77.0189 26.6283 77.2471 26.6325C77.7441 26.6037 78.2355 26.5133 78.7099 26.3633C79.1842 26.2264 79.6494 26.0599 80.1026 25.8647C80.5471 25.6539 80.9772 25.4141 81.39 25.1469C81.9168 24.8676 82.4122 24.5334 82.8679 24.1498C83.2978 23.7344 83.6505 23.2467 83.9098 22.7091C84.1358 22.1651 84.2319 21.5764 84.1904 20.9892C84.2015 20.4229 84.1116 19.8592 83.9249 19.3241ZM82.7426 22.4947C82.4453 22.9303 82.078 23.3143 81.6555 23.6314C81.2369 23.9596 80.7872 24.2468 80.313 24.4888C79.8262 24.7093 79.3239 24.8943 78.8101 25.0422C78.3258 25.2128 77.82 25.3151 77.3072 25.3463C77.1832 24.8564 77.1093 24.3554 77.0868 23.8507C77.0868 23.3921 77.1669 22.8537 77.1619 22.3053C77.1569 21.7569 77.0517 21.3083 77.0567 20.7549C77.0617 20.2015 77.1369 19.713 77.1569 19.2095C77.177 18.706 77.212 18.1377 77.2371 17.6691C77.2772 17.031 77.3273 16.5574 77.3673 16.1735C77.8962 16.228 78.4203 16.3213 78.9353 16.4527C79.4529 16.6324 79.9554 16.8524 80.4382 17.1107C80.9194 17.3789 81.3653 17.7054 81.7657 18.0828C82.1705 18.4682 82.4925 18.9312 82.7126 19.4438C82.9436 19.9332 83.0601 20.4684 83.0532 21.0091C83.0898 21.5234 82.9822 22.0377 82.7426 22.4947Z" fill="#474442"/>
<path d="M93.067 23.9854C92.6312 23.7362 92.0651 23.5368 91.5641 23.2426C91.0632 22.9485 90.6424 22.5946 90.1915 22.3204C89.6505 21.9914 89.1295 21.7222 88.7638 21.4779C88.7989 21.4779 88.859 21.3483 88.899 21.3383C89.4 21.1887 90.0112 21.0591 90.6123 20.8398C91.1744 20.6462 91.7218 20.413 92.2505 20.1418C92.7908 19.8961 93.2841 19.5587 93.7082 19.1448C93.9025 18.9207 94.0443 18.6563 94.1231 18.3709C94.202 18.0855 94.216 17.7862 94.1641 17.4947C94.1038 17.0473 93.8832 16.6367 93.5429 16.3381C93.2059 16.0297 92.8086 15.7938 92.3757 15.6452C91.8996 15.4522 91.4042 15.3101 90.8979 15.2215C90.3905 15.1027 89.8771 15.0111 89.3599 14.9473C88.8389 14.9496 88.3186 14.9846 87.8019 15.052C87.292 15.0522 86.7917 15.19 86.3542 15.4508C86.2139 15.5754 86.0736 15.6502 86.1037 17.1158C86.1037 17.5695 86.0736 18.1527 86.1037 18.9005C86.1388 19.399 86.1037 20.0122 86.1588 20.6952C86.2039 21.2336 86.4043 21.8119 86.4644 22.4699C86.5195 23.0183 86.5746 23.6115 86.6397 24.2496C86.6948 24.808 86.6848 25.3863 86.7499 26.0194C87.306 26.2437 87.5565 26.4033 87.857 25.8748C87.7869 25.2168 87.812 24.5936 87.7518 23.9306C87.6917 23.2676 87.6517 22.6245 87.5965 21.9764C87.9573 22.3161 88.3424 22.6294 88.7488 22.9136C89.1545 23.1828 89.6805 23.3274 90.1364 23.6016C90.5923 23.8758 91.0131 24.1649 91.4489 24.4092C91.8848 24.6535 92.3707 24.9775 92.7765 25.1919C93.563 25.6206 94.0689 25.8948 94.089 25.8998C94.2693 25.3364 94.4146 25.3663 94.4948 24.7781C94.3595 24.6983 93.7834 24.3892 93.067 23.9854ZM87.5565 20.5905C87.5114 20.092 87.3411 19.6433 87.306 19.1897C87.2709 18.6563 87.2359 18.1677 87.2158 17.744C87.1952 17.2553 87.2035 16.7659 87.2409 16.2783C87.8335 16.1644 88.4357 16.1076 89.0393 16.1088C89.6376 16.1325 90.2335 16.1975 90.8227 16.3032C91.4008 16.418 91.9527 16.6377 92.4508 16.9513C92.9518 17.2654 93.057 17.5097 93.072 17.6094C93.1321 18.1079 92.6963 18.6064 92.025 19.0102C91.4879 19.3036 90.9264 19.5504 90.3468 19.748C89.6956 19.9873 89.0393 20.1169 88.5935 20.2465C88.2347 20.3352 87.8831 20.4502 87.5414 20.5905H87.5565Z" fill="#474442"/>
<path d="M106.703 18.4826C106.545 17.9854 106.302 17.5185 105.987 17.1017C105.667 16.6846 105.288 16.3167 104.86 16.0099C104.413 15.7382 103.938 15.5158 103.442 15.3469C102.976 15.1098 102.488 14.9178 101.984 14.7736C101.471 14.6855 100.952 14.6273 100.431 14.5991V14.5293C99.811 14.5277 99.2104 14.747 98.7382 15.1475C98.2042 15.4579 97.7294 15.8595 97.3355 16.3339C97 16.8529 96.7212 17.4061 96.5039 17.984C96.2617 18.5474 96.077 19.1337 95.9528 19.7339C95.8189 20.2826 95.745 20.8443 95.7324 21.4089C95.7538 21.9744 95.8515 22.5344 96.023 23.0739C96.1535 23.6336 96.377 24.1678 96.6842 24.6542C97.0191 25.1218 97.4326 25.5282 97.9066 25.8557C98.4017 26.1398 98.9346 26.3529 99.4896 26.4888C100.483 26.8071 101.549 26.821 102.55 26.5287C103.025 26.3676 103.475 26.1428 103.888 25.8607C104.342 25.632 104.767 25.3509 105.155 25.0232C105.56 24.5981 105.911 24.126 106.202 23.6173C106.457 23.0828 106.642 22.5183 106.754 21.9373C106.924 21.3759 107.015 20.7937 107.024 20.2074C107.011 19.6191 106.903 19.0367 106.703 18.4826ZM105.762 20.7608C105.729 21.3963 105.583 22.0209 105.331 22.6053C105.035 23.1625 104.649 23.6677 104.189 24.1009C103.843 24.5184 103.436 24.8815 102.981 25.1777C102.48 25.3814 101.944 25.4864 101.403 25.4868C100.874 25.5682 100.333 25.5393 99.8152 25.402C99.2697 25.2389 98.7598 24.9751 98.3124 24.6243C97.8822 24.2528 97.5473 23.7845 97.3355 23.2584C97.0998 22.7442 96.9589 22.192 96.9197 21.6282C96.9253 21.0643 97.0096 20.504 97.1702 19.9632C97.2986 19.3668 97.4935 18.7866 97.7513 18.2333C97.9794 17.662 98.2808 17.1224 98.648 16.6281C99.0282 16.118 99.5952 15.7776 100.226 15.6809C100.256 15.6809 100.286 15.7457 100.311 15.7457C100.852 15.7928 101.387 15.8811 101.914 16.0099C102.437 16.1509 102.942 16.3534 103.417 16.6131C103.895 16.8546 104.329 17.1749 104.7 17.5603C105.102 17.9228 105.424 18.3641 105.646 18.8565C105.828 19.4745 105.869 20.125 105.767 20.7608H105.762Z" fill="#474442"/>
<path d="M117.133 26.3281C116.537 26.2832 116.387 26.3281 116.046 25.8296C116.327 25.3311 116.708 24.8625 116.968 24.4038C117.229 23.9452 117.509 23.4068 117.77 22.9631C118.03 22.5194 118.351 21.996 118.611 21.5473L119.448 20.1265C119.753 19.628 119.924 19.0697 120.179 18.631C120.505 18.0926 120.886 17.6838 121.136 17.28C121.507 16.6967 121.677 16.1683 121.918 15.8243C122.694 14.7076 122.97 14.7575 123.105 14.7275C123.436 14.6478 123.706 14.5331 124.267 15.6299C124.536 16.1151 124.778 16.6143 124.994 17.1254C125.169 17.5591 125.269 18.1225 125.494 18.6908C125.665 19.1544 125.835 19.6878 126.046 20.2412C126.216 20.7397 126.391 21.2382 126.587 21.7916C126.782 22.3449 127.032 22.7886 127.228 23.3121C127.423 23.8355 127.563 24.3091 127.754 24.8724C127.944 25.4358 128.074 25.8695 128.104 25.9442C127.568 26.2035 127.503 26.0489 126.932 26.2234C126.897 26.1387 126.787 25.8495 126.592 25.2712C126.396 24.693 126.196 24.2393 126.03 23.7757C125.865 23.3121 125.7 22.7138 125.53 22.2402C125.334 21.6919 125.214 21.1634 125.029 20.7048C124.818 20.1415 124.558 19.6629 124.387 19.2092C124.167 18.621 123.886 18.1524 123.736 17.7137C123.456 17.0157 123.32 16.4923 123.17 16.1882C122.935 16.5172 122.539 16.9709 122.168 17.5691C121.898 17.9978 121.642 18.5063 121.326 19.0348C121.011 19.5632 120.856 20.0318 120.555 20.5303C120.254 21.0288 119.969 21.4725 119.673 21.976C119.378 22.4795 119.037 22.9332 118.752 23.4317C118.466 23.9302 118.251 24.4287 117.975 24.9273C117.7 25.4258 117.409 25.8396 117.133 26.3281Z" fill="#474442"/>
<path d="M139.266 24.2541C139.235 23.7107 139.155 23.0826 139.12 22.4096C139.09 21.8164 139.04 21.1882 139.005 20.5651C138.97 19.9419 138.885 19.4883 138.855 19.0296C138.82 18.4364 138.815 17.9279 138.785 17.4892C138.735 16.8361 138.785 16.3277 138.74 15.9488C138.594 14.7872 138.349 14.8421 138.023 14.7773C137.698 14.7124 137.492 14.5579 136.62 15.8989C136.355 16.3127 136.019 16.8561 135.578 17.564C135.288 18.0625 134.982 18.6208 134.577 19.259C134.331 19.6578 134.131 20.1363 133.855 20.58C133.58 21.0237 133.274 21.4076 133.014 21.8313C132.753 22.2551 132.563 22.7635 132.312 23.1624C132.007 23.6609 131.641 24.0298 131.405 24.3788C131.34 23.8802 131.315 23.2471 131.25 22.5542C131.2 21.9759 131.045 21.3677 130.995 20.7396C130.945 20.1114 130.889 19.5082 130.849 18.915C130.809 18.3217 130.849 17.6288 130.804 17.0904C130.754 16.2628 130.714 15.6497 130.704 15.3954C130.779 15.3705 130.799 15.3506 130.704 15.3506V15.3007C130.414 15.2259 130.108 14.9816 130.108 15.3007C130.105 15.3172 130.105 15.3341 130.108 15.3506C129.908 15.3376 129.707 15.3376 129.507 15.3506C129.507 15.4104 129.637 16.0385 129.702 17.0356C129.732 17.5341 129.627 18.1522 129.667 18.7854C129.707 19.4185 129.802 19.9369 129.848 20.5252C129.903 21.273 129.847 21.926 129.918 22.4844C129.988 23.3069 130.118 23.9351 130.178 24.4286C130.379 26.0139 130.584 26.0538 130.814 26.1784C130.94 26.2532 131.02 26.4177 131.14 26.4177C131.37 26.4177 131.691 26.1535 132.282 25.311C132.518 24.977 132.808 24.5433 133.164 23.9899C133.409 23.606 133.61 23.1075 133.925 22.599C134.181 22.1952 134.471 21.7565 134.777 21.263C135.032 20.8442 135.323 20.4055 135.619 19.917C135.914 19.4284 136.205 18.8452 136.515 18.3417C136.826 17.8382 137.257 17.2898 137.517 16.8461C137.557 17.2848 137.672 17.7983 137.713 18.3766C137.748 18.8751 137.662 19.3736 137.713 19.932C137.763 20.4903 137.778 20.9639 137.808 21.4774C137.838 21.9908 137.928 22.5292 137.958 23.0228C137.988 23.5163 138.023 24.1096 138.048 24.5632C138.088 25.3658 138.048 26.0139 138.048 26.1884C138.639 26.2731 138.654 26.0937 139.251 26.0538C139.311 25.9591 139.336 25.291 139.266 24.2541ZM131.626 25.3259C131.626 25.3259 131.676 25.3559 131.676 25.3858L131.626 25.3259Z" fill="#474442"/>
<path d="M142.973 25.7806C142.427 26.0199 142.301 25.8902 141.765 25.626C141.765 25.0677 141.68 24.5941 141.69 24.0906C141.7 23.5871 141.851 23.0038 141.861 22.5103C141.871 22.0167 141.77 21.4385 141.77 20.9399C141.77 20.3567 141.8 19.8282 141.821 19.3546C141.821 18.7464 142.021 18.233 142.046 17.7793C142.081 17.1113 142.091 16.5978 142.131 16.199C142.256 14.9328 142.397 14.9078 142.602 14.8131C142.672 14.7782 142.782 14.7284 144.105 14.6237C144.496 14.5938 144.997 14.5788 145.633 14.5389C146.074 14.509 146.575 14.4193 147.136 14.3844C147.597 14.3595 148.138 14.2847 148.704 14.2598C148.984 14.7832 148.944 14.9078 148.704 15.4512C148.103 15.4861 147.521 15.5858 146.925 15.6207C146.329 15.6556 145.663 15.6207 145.112 15.6756C144.325 15.7254 143.609 15.7254 143.258 15.7653C143.218 16.0993 143.293 16.7324 143.258 17.4702C143.233 17.9688 143.103 18.5072 143.078 19.1104C143.078 19.6089 143.023 20.1822 143.003 20.7605C142.983 21.3387 142.963 21.8472 142.943 22.4106C142.923 22.9739 143.048 23.5123 143.033 24.0657C143.018 24.619 142.983 25.2372 142.973 25.7806Z" fill="#474442"/>
<path d="M148.283 26.6078C147.913 26.4529 147.565 26.2519 147.246 26.0096C147.476 25.6351 147.687 25.249 147.877 24.853C148.048 24.5041 148.193 24.0803 148.378 23.6666C148.564 23.2528 148.844 22.7892 149.075 22.2956C149.305 21.8021 149.38 21.3235 149.606 20.8499C149.831 20.3763 150.197 19.8529 150.417 19.4242C150.673 18.8808 150.848 18.3623 151.058 17.9286C151.334 17.3653 151.509 16.8468 151.715 16.433C152.025 15.8149 152.286 15.3463 152.486 14.9923C153.112 13.8607 153.338 13.9006 153.608 13.9006C153.879 13.9006 154.024 13.9006 154.635 15.1768C154.821 15.5756 155.166 16.0442 155.457 16.7272C155.647 17.1858 155.707 17.784 155.958 18.4022C156.153 18.9007 156.424 19.3992 156.659 20.0074C156.86 20.506 157.16 21.0045 157.391 21.5977C157.591 22.0962 157.806 22.6446 158.032 23.2229C158.257 23.8012 158.418 24.2897 158.638 24.863C158.818 25.3167 158.938 25.6756 158.964 25.7304C158.428 25.9996 158.357 25.8451 157.801 26.0694C157.673 25.8256 157.559 25.5742 157.461 25.3167C157.24 24.7484 157.095 24.18 156.895 23.6716C156.694 23.1631 156.394 22.5848 156.178 22.0813C155.948 21.498 155.807 20.9297 155.607 20.4362C155.367 19.8379 155.166 19.2946 154.966 18.811C154.715 18.1878 154.465 17.6594 154.29 17.2107C153.984 16.4929 153.739 16.0342 153.573 15.6703C153.398 15.9943 153.147 16.3932 152.822 17.0412C152.621 17.445 152.396 17.9236 152.125 18.4869C151.915 18.9207 151.665 19.3893 151.409 19.9277C151.199 20.3763 150.908 20.84 150.683 21.3684C150.457 21.8968 150.382 22.3654 150.182 22.8241C149.981 23.2827 149.566 23.7065 149.365 24.1352C149.12 24.6337 148.939 25.0574 148.789 25.3765C148.596 25.7768 148.427 26.1879 148.283 26.6078Z" fill="#474442"/>
<path d="M154.394 22.0071C153.743 22.0071 153.012 22.0619 152.346 22.0569H150.287C150.241 21.4637 150.141 21.4437 150.357 20.8904C150.828 20.8904 151.469 20.8555 152.235 20.8555C152.882 20.8555 153.568 20.9053 154.179 20.9053C155.181 20.9053 155.962 20.8754 156.118 20.8654C156.212 21.2542 156.224 21.6583 156.153 22.0519C155.997 22.0619 155.296 22.0071 154.394 22.0071Z" fill="#474442"/>
<path d="M171.447 26.0896C171.227 25.5911 171.056 25.0577 170.826 24.5392C170.595 24.0208 170.355 23.5073 170.125 22.9938C169.894 22.4803 169.559 21.9968 169.328 21.4982C169.098 20.9997 168.907 20.4214 168.672 19.9329C168.436 19.4443 168.171 18.881 167.92 18.4074C167.64 17.8491 167.419 17.3157 167.179 16.882C166.903 16.3966 166.583 15.9377 166.222 15.511C165.97 15.9651 165.751 16.4366 165.566 16.9218C165.401 17.3605 165.325 17.9189 165.14 18.4573C164.98 18.9259 164.719 19.4045 164.549 19.9528C164.379 20.5012 164.278 20.9499 164.118 21.4833C163.958 22.0167 163.833 22.4803 163.682 23.0137C163.532 23.5472 163.302 24.0108 163.156 24.5093C163.011 25.0078 162.896 25.4764 162.76 26.0049C162.169 26.0946 162.074 26.1445 161.613 25.7656C161.759 25.2322 161.909 24.7237 162.039 24.2401C162.169 23.7565 162.285 23.1783 162.42 22.6997C162.555 22.2211 162.781 21.6677 162.921 21.2041C163.061 20.7405 163.191 20.1423 163.342 19.6786C163.517 19.1203 163.657 18.6118 163.812 18.1831C164.008 17.6098 164.173 17.1063 164.338 16.6875C164.536 16.1962 164.758 15.7153 165.005 15.2468C165.551 14.185 165.902 14.2498 166.087 14.2498C166.272 14.2498 166.543 14.1351 167.289 15.187C167.641 15.6243 167.964 16.084 168.256 16.5629C168.491 16.9866 168.782 17.4652 169.073 18.0585C169.303 18.5071 169.533 19.0206 169.804 19.554C170.029 20.0226 170.25 20.5511 170.505 21.0895C170.761 21.6279 170.871 22.1164 171.111 22.6648C171.352 23.2132 171.673 23.612 171.913 24.1603C172.153 24.7087 172.339 25.1973 172.574 25.7357C172.419 26.2442 172.043 26.1145 171.447 26.0896Z" fill="#474442"/>
<path d="M174.939 26.3925C174.558 26.4473 174.052 25.7295 174.087 25.3955C174.122 25.0614 174.824 24.7773 175.209 25.0465C175.595 25.3157 175.675 26.2778 174.939 26.3925Z" fill="#474442"/>
<path d="M169.99 21.4375C169.308 21.936 169.183 21.4874 168.346 21.4874C167.51 21.4874 167.505 21.4375 166.668 21.4375C165.832 21.4375 165.832 21.5721 164.99 21.5721C164.148 21.5721 163.988 21.9909 163.292 21.5073C163.181 21.4452 163.089 21.355 163.025 21.2459C162.961 21.1369 162.928 21.0129 162.928 20.8866C162.928 20.7604 162.961 20.6364 163.025 20.5273C163.089 20.4183 163.181 20.3281 163.292 20.266C163.973 19.7675 164.143 20.3158 164.985 20.3158C165.827 20.3158 165.822 20.2361 166.658 20.2361C167.495 20.2361 167.495 20.3507 168.336 20.3507C169.178 20.3507 169.223 20.0018 170.01 20.2959C170.606 20.5252 170.475 21.0935 169.99 21.4375Z" fill="#474442"/>
<path d="M112.785 23.203C112.324 23.3875 112.254 23.3127 111.783 23.1233C111.783 22.7145 111.783 22.1262 111.808 21.5031C111.808 20.9497 111.748 20.3615 111.768 19.838C111.788 19.2925 111.836 18.7484 111.913 18.2079C112.246 18.1794 112.581 18.1711 112.915 18.1829C112.915 18.1829 112.82 18.9507 112.79 19.863C112.79 20.3615 112.91 20.9697 112.895 21.523C112.885 22.1661 112.785 22.8042 112.785 23.203Z" fill="#474442"/>
<path d="M114.428 21.2482C113.997 21.2482 113.466 21.1485 112.925 21.1286C112.384 21.1086 111.888 21.0388 111.422 21.0089C110.606 20.964 109.919 20.9541 109.844 20.9541C109.88 20.6191 109.933 20.2863 110.005 19.957C110.005 19.957 110.676 20.0418 111.553 20.0916C112.053 20.1215 112.6 20.0916 113.131 20.0916C113.662 20.0916 114.378 20.0916 114.789 20.0916C114.989 20.5453 114.689 20.625 114.653 21.1186C114.558 21.1535 114.528 21.2482 114.428 21.2482Z" fill="#474442"/>
</g>
<defs>
<clipPath id="clip0_11976_16000">
<rect width="175" height="32" fill="white" transform="translate(0.5 0.5)"/>
</clipPath>
</defs>
</svg>
