<svg width="230" height="83" viewBox="0 0 230 83" fill="none" xmlns="http://www.w3.org/2000/svg">
<path d="M56.0493 44.1058H56.1905V44.3791H52.2095V44.1058H52.3506C52.4824 44.1058 52.6047 44.0512 52.7177 43.9419C52.8306 43.8326 52.9247 43.705 53 43.5593C53.0941 43.4136 53.16 43.2587 53.1977 43.0948C53.2353 42.9126 53.2541 42.7486 53.2541 42.6029V28.0378C53.2541 27.9103 53.2353 27.7645 53.1977 27.6006C53.16 27.4366 53.0941 27.2818 53 27.136C52.9247 26.9903 52.8306 26.8719 52.7177 26.7808C52.6047 26.6715 52.4824 26.6168 52.3506 26.6168H52.2095V26.3435H57.1222C59.0045 26.3435 60.4538 26.6988 61.4703 27.4093C62.5055 28.1198 63.0231 29.1673 63.0231 30.5518C63.0231 31.2441 62.9008 31.8544 62.6561 32.3827C62.4302 32.8928 62.1196 33.3392 61.7244 33.7217C61.3291 34.0861 60.8585 34.3867 60.3127 34.6235C59.7856 34.8421 59.2209 35.0061 58.6186 35.1154L60.6515 38.1213C61.1409 38.85 61.6397 39.5696 62.1479 40.2801C62.6561 40.9724 63.1549 41.692 63.6443 42.4389C63.776 42.6211 63.9172 42.8124 64.0678 43.0128C64.2372 43.2132 64.4066 43.3953 64.576 43.5593C64.7642 43.7233 64.9525 43.8599 65.1407 43.9692C65.3477 44.0603 65.5548 44.1058 65.7618 44.1058V44.3791H64.5478C63.7949 44.3791 63.1737 44.206 62.6843 43.8599C62.2138 43.4955 61.8185 43.0765 61.4985 42.6029C60.6515 41.4005 59.8044 40.1799 58.9574 38.9411C58.1292 37.7023 57.301 36.4817 56.4728 35.2793C56.2658 35.2611 56.0399 35.2429 55.7952 35.2247C55.5693 35.1883 55.3529 35.1518 55.1458 35.1154V42.6029C55.1458 42.7486 55.1646 42.9126 55.2023 43.0948C55.2399 43.2587 55.2964 43.4136 55.3717 43.5593C55.4658 43.705 55.5599 43.8326 55.654 43.9419C55.767 44.0512 55.8987 44.1058 56.0493 44.1058ZM55.1458 27.2726V34.2136H55.287C55.4376 34.2318 55.6729 34.25 55.9928 34.2683C56.3317 34.2683 56.7458 34.2683 57.2351 34.2683C57.6304 34.2683 58.0445 34.2136 58.4774 34.1043C58.9292 33.9768 59.3433 33.7764 59.7197 33.5031C60.115 33.2116 60.435 32.8382 60.6797 32.3827C60.9432 31.9273 61.075 31.3534 61.075 30.6611C61.075 29.9689 60.9338 29.4041 60.6515 28.9669C60.3879 28.5297 60.0115 28.1835 59.5221 27.9285C59.0515 27.6734 58.4774 27.5004 57.7998 27.4093C57.1222 27.3182 56.3787 27.2726 55.5693 27.2726H55.1458Z" fill="#474442"/>
<path d="M67.0899 44.1058H67.2311C67.3817 44.1058 67.5135 44.0603 67.6264 43.9692C67.7393 43.8599 67.8334 43.7324 67.9087 43.5866C68.0028 43.4409 68.0687 43.286 68.1064 43.1221C68.1628 42.9581 68.1911 42.8033 68.1911 42.6575V28.0378C68.1911 27.9103 68.1628 27.7645 68.1064 27.6006C68.0687 27.4366 68.0028 27.2818 67.9087 27.136C67.8334 26.9903 67.7393 26.8719 67.6264 26.7808C67.5135 26.6715 67.3817 26.6168 67.2311 26.6168H67.0899V26.3435H77.9601V28.8849H77.6777C77.6401 28.4659 77.4707 28.1016 77.1695 27.7919C76.8683 27.4639 76.3978 27.3 75.7578 27.3H70.0828V34.2136H74.7696C75.2025 34.2136 75.5602 34.0861 75.8425 33.831C76.1437 33.576 76.2943 33.2754 76.2943 32.9293H76.5766V36.3451H76.2943C76.2943 36.0172 76.1531 35.7348 75.8707 35.498C75.5884 35.2611 75.2214 35.1427 74.7696 35.1427H70.0828V43.4227H76.266C76.6237 43.4227 76.9342 43.3407 77.1977 43.1767C77.4613 43.0128 77.6777 42.8215 77.8471 42.6029C78.0354 42.366 78.1671 42.1201 78.2424 41.8651C78.3365 41.5918 78.3836 41.3641 78.3836 41.1819H78.6659V44.3791H67.0899V44.1058Z" fill="#474442"/>
<path d="M91.8612 39.5423C91.8612 40.4532 91.6729 41.2365 91.2965 41.8924C90.92 42.53 90.4306 43.0492 89.8283 43.45C89.2448 43.8508 88.5766 44.1423 87.8237 44.3245C87.0896 44.5066 86.3555 44.5977 85.6214 44.5977C84.8685 44.5977 84.2191 44.5248 83.6733 44.3791C83.1274 44.2334 82.6286 44.0967 82.1769 43.9692C81.8757 43.8781 81.6028 43.8052 81.3581 43.7506C81.1134 43.6777 80.8687 43.6413 80.624 43.6413V40.5261H80.9063C80.9063 41.2183 81.0852 41.774 81.4428 42.193C81.8192 42.5938 82.2522 42.9035 82.7416 43.1221C83.2309 43.3407 83.7203 43.4864 84.2097 43.5593C84.6991 43.614 85.0568 43.6413 85.2826 43.6413C86.092 43.6413 86.7884 43.532 87.3719 43.3134C87.9555 43.0765 88.4354 42.7759 88.8119 42.4116C89.1883 42.029 89.4613 41.61 89.6307 41.1546C89.8189 40.6991 89.913 40.2346 89.913 39.7609C89.913 39.1597 89.7813 38.6587 89.5177 38.2579C89.2542 37.8389 88.906 37.4746 88.4731 37.1649C88.059 36.8552 87.579 36.591 87.0331 36.3724C86.4873 36.1538 85.932 35.9352 85.3673 35.7166C84.7274 35.4797 84.0968 35.2338 83.4756 34.9788C82.8545 34.7237 82.2992 34.414 81.8098 34.0496C81.3204 33.6671 80.9252 33.2207 80.624 32.7106C80.3228 32.1823 80.1722 31.5356 80.1722 30.7705C80.1722 29.9689 80.3322 29.2766 80.6522 28.6936C80.9722 28.0924 81.3957 27.6006 81.9228 27.218C82.4686 26.8354 83.0804 26.553 83.758 26.3709C84.4544 26.1705 85.1603 26.0703 85.8755 26.0703C86.3649 26.0703 86.8261 26.1067 87.259 26.1796C87.6919 26.2342 88.106 26.3071 88.5013 26.3982C88.8213 26.4711 89.1319 26.5348 89.433 26.5895C89.7342 26.6259 90.026 26.6441 90.3083 26.6441V29.4588H90.026C89.9883 28.5115 89.6024 27.8738 88.8684 27.5459C88.1343 27.1998 87.1178 27.0267 85.8191 27.0267C85.0662 27.0267 84.445 27.1542 83.9556 27.4093C83.4851 27.6461 83.1086 27.9467 82.8263 28.3111C82.5439 28.6572 82.3463 29.0398 82.2333 29.4588C82.1392 29.8596 82.0922 30.2148 82.0922 30.5245C82.0922 31.0346 82.2051 31.4718 82.431 31.8362C82.6757 32.2005 82.9957 32.5194 83.3909 32.7926C83.7862 33.0659 84.238 33.3118 84.7462 33.5304C85.2732 33.7491 85.8191 33.9586 86.3838 34.159C87.0237 34.3958 87.6731 34.6508 88.3319 34.9241C88.9907 35.1974 89.5742 35.5344 90.0824 35.9352C90.6095 36.336 91.033 36.8279 91.353 37.4108C91.6918 37.9938 91.8612 38.7043 91.8612 39.5423Z" fill="#474442"/>
<path d="M103.252 44.1058H103.393C103.845 44.1058 104.071 43.9054 104.071 43.5047C104.071 43.3589 104.043 43.2041 103.986 43.0401L101.445 36.3997H96.5043L94.048 42.9308C93.9915 43.0765 93.9633 43.2132 93.9633 43.3407C93.9633 43.5775 94.0292 43.7688 94.1609 43.9146C94.2927 44.0421 94.4338 44.1058 94.5844 44.1058H94.7256V44.3791H91.5916V44.1058H91.7328C91.9775 44.1058 92.2128 43.9692 92.4386 43.6959C92.6833 43.4045 92.881 43.0674 93.0316 42.6849L99.4972 26.0156L105.822 42.5209C105.953 42.8853 106.132 43.2405 106.358 43.5866C106.603 43.9328 106.913 44.1058 107.29 44.1058H107.431V44.3791H103.252V44.1058ZM96.7867 35.4706H101.135L98.9607 29.7594L96.7867 35.4706Z" fill="#474442"/>
<path d="M108.754 44.1058H108.895C109.045 44.1058 109.177 44.0603 109.29 43.9692C109.403 43.8599 109.497 43.7324 109.572 43.5866C109.666 43.4409 109.732 43.286 109.77 43.1221C109.826 42.9581 109.855 42.8033 109.855 42.6575V28.0378C109.855 27.9103 109.826 27.7645 109.77 27.6006C109.732 27.4366 109.666 27.2818 109.572 27.136C109.497 26.9903 109.403 26.8719 109.29 26.7808C109.177 26.6715 109.045 26.6168 108.895 26.6168H108.754V26.3435H112.819V26.6168H112.678C112.527 26.6168 112.396 26.6715 112.283 26.7808C112.17 26.8719 112.076 26.9903 112 27.136C111.925 27.2818 111.859 27.4366 111.803 27.6006C111.765 27.7645 111.746 27.9103 111.746 28.0378V43.368H117.93C118.287 43.368 118.598 43.286 118.861 43.1221C119.125 42.9581 119.341 42.7577 119.511 42.5209C119.699 42.2658 119.831 42.0017 119.906 41.7284C120 41.4369 120.047 41.1728 120.047 40.936H120.33V44.3791H108.754V44.1058Z" fill="#474442"/>
<path d="M121.511 44.1058H121.652C121.803 44.1058 121.934 44.0603 122.047 43.9692C122.16 43.8599 122.254 43.7324 122.33 43.5866C122.424 43.4409 122.49 43.286 122.527 43.1221C122.584 42.9581 122.612 42.8033 122.612 42.6575V28.0378C122.612 27.9103 122.584 27.7645 122.527 27.6006C122.49 27.4366 122.424 27.2818 122.33 27.136C122.254 26.9903 122.16 26.8719 122.047 26.7808C121.934 26.6715 121.803 26.6168 121.652 26.6168H121.511V26.3435H132.381V28.8849H132.099C132.061 28.4659 131.892 28.1016 131.59 27.7919C131.289 27.4639 130.819 27.3 130.179 27.3H124.504V34.2136H129.191C129.624 34.2136 129.981 34.0861 130.264 33.831C130.565 33.576 130.715 33.2754 130.715 32.9293H130.998V36.3451H130.715C130.715 36.0172 130.574 35.7348 130.292 35.498C130.009 35.2611 129.642 35.1427 129.191 35.1427H124.504V43.4227H130.687C131.045 43.4227 131.355 43.3407 131.619 43.1767C131.882 43.0128 132.099 42.8215 132.268 42.6029C132.456 42.366 132.588 42.1201 132.663 41.8651C132.758 41.5918 132.805 41.3641 132.805 41.1819H133.087V44.3791H121.511V44.1058Z" fill="#474442"/>
<path d="M162.877 26.6168C162.501 26.6168 162.181 26.7717 161.917 27.0814C161.654 27.3911 161.475 27.7281 161.381 28.0924L156.242 44.4884L151.838 31.0437L147.433 44.5157L142.266 28.1198C142.172 27.7736 142.003 27.4366 141.758 27.1087C141.532 26.7808 141.269 26.6168 140.968 26.6168V26.3435H144.977V26.6168C144.732 26.6168 144.525 26.717 144.356 26.9174C144.205 27.0996 144.13 27.3364 144.13 27.6279C144.13 27.719 144.149 27.8374 144.186 27.9831L147.857 39.5696L152.346 26.1796L156.666 39.5423L160.393 27.9831C160.393 27.9467 160.402 27.8738 160.421 27.7645C160.458 27.637 160.477 27.5368 160.477 27.4639C160.477 27.2089 160.402 27.0085 160.251 26.8628C160.101 26.6988 159.95 26.6168 159.8 26.6168V26.3435H162.877V26.6168Z" fill="#474442"/>
<path d="M170.762 44.1058H170.903C171.354 44.1058 171.58 43.9054 171.58 43.5047C171.58 43.3589 171.552 43.2041 171.496 43.0401L168.955 36.3997H164.014L161.557 42.9308C161.501 43.0765 161.473 43.2132 161.473 43.3407C161.473 43.5775 161.538 43.7688 161.67 43.9146C161.802 44.0421 161.943 44.1058 162.094 44.1058H162.235V44.3791H159.101V44.1058H159.242C159.487 44.1058 159.722 43.9692 159.948 43.6959C160.193 43.4045 160.39 43.0674 160.541 42.6849L167.006 26.0156L173.331 42.5209C173.463 42.8853 173.641 43.2405 173.867 43.5866C174.112 43.9328 174.423 44.1058 174.799 44.1058H174.94V44.3791H170.762V44.1058ZM164.296 35.4706H168.644L166.47 29.7594L164.296 35.4706Z" fill="#474442"/>
<path d="M180.103 44.1058H180.244V44.3791H176.263V44.1058H176.404C176.536 44.1058 176.658 44.0512 176.771 43.9419C176.884 43.8326 176.978 43.705 177.053 43.5593C177.147 43.4136 177.213 43.2587 177.251 43.0948C177.289 42.9126 177.307 42.7486 177.307 42.6029V28.0378C177.307 27.9103 177.289 27.7645 177.251 27.6006C177.213 27.4366 177.147 27.2818 177.053 27.136C176.978 26.9903 176.884 26.8719 176.771 26.7808C176.658 26.6715 176.536 26.6168 176.404 26.6168H176.263V26.3435H181.176C183.058 26.3435 184.507 26.6988 185.524 27.4093C186.559 28.1198 187.076 29.1673 187.076 30.5518C187.076 31.2441 186.954 31.8544 186.709 32.3827C186.484 32.8928 186.173 33.3392 185.778 33.7217C185.382 34.0861 184.912 34.3867 184.366 34.6235C183.839 34.8421 183.274 35.0061 182.672 35.1154L184.705 38.1213C185.194 38.85 185.693 39.5696 186.201 40.2801C186.709 40.9724 187.208 41.692 187.698 42.4389C187.829 42.6211 187.971 42.8124 188.121 43.0128C188.291 43.2132 188.46 43.3953 188.629 43.5593C188.818 43.7233 189.006 43.8599 189.194 43.9692C189.401 44.0603 189.608 44.1058 189.815 44.1058V44.3791H188.601C187.848 44.3791 187.227 44.206 186.738 43.8599C186.267 43.4955 185.872 43.0765 185.552 42.6029C184.705 41.4005 183.858 40.1799 183.011 38.9411C182.183 37.7023 181.354 36.4817 180.526 35.2793C180.319 35.2611 180.093 35.2429 179.849 35.2247C179.623 35.1883 179.406 35.1518 179.199 35.1154V42.6029C179.199 42.7486 179.218 42.9126 179.256 43.0948C179.293 43.2587 179.35 43.4136 179.425 43.5593C179.519 43.705 179.613 43.8326 179.707 43.9419C179.82 44.0512 179.952 44.1058 180.103 44.1058ZM179.199 27.2726V34.2136H179.34C179.491 34.2318 179.726 34.25 180.046 34.2683C180.385 34.2683 180.799 34.2683 181.288 34.2683C181.684 34.2683 182.098 34.2136 182.531 34.1043C182.982 33.9768 183.397 33.7764 183.773 33.5031C184.168 33.2116 184.488 32.8382 184.733 32.3827C184.997 31.9273 185.128 31.3534 185.128 30.6611C185.128 29.9689 184.987 29.4041 184.705 28.9669C184.441 28.5297 184.065 28.1835 183.575 27.9285C183.105 27.6734 182.531 27.5004 181.853 27.4093C181.176 27.3182 180.432 27.2726 179.623 27.2726H179.199Z" fill="#474442"/>
<path d="M191.115 44.1058H191.256C191.388 44.1058 191.51 44.0512 191.623 43.9419C191.736 43.8326 191.83 43.705 191.906 43.5593C192 43.4136 192.066 43.2587 192.103 43.0948C192.141 42.9126 192.16 42.7486 192.16 42.6029V28.0378C192.16 27.9103 192.141 27.7645 192.103 27.6006C192.066 27.4366 192.009 27.2818 191.934 27.136C191.859 26.9903 191.764 26.8719 191.651 26.7808C191.539 26.6715 191.407 26.6168 191.256 26.6168H191.115V26.3435H196.564C198.051 26.3435 199.388 26.5986 200.573 27.1087C201.759 27.6006 202.757 28.2746 203.566 29.1309C204.394 29.9689 205.025 30.9344 205.458 32.0275C205.891 33.1205 206.107 34.2592 206.107 35.4433C206.107 36.5546 205.9 37.6477 205.486 38.7225C205.072 39.7791 204.451 40.7264 203.623 41.5645C202.795 42.4025 201.759 43.0856 200.517 43.614C199.275 44.1241 197.835 44.3791 196.197 44.3791H191.115V44.1058ZM204.187 35.8532C204.187 34.6873 203.971 33.5851 203.538 32.5467C203.105 31.5083 202.493 30.6065 201.703 29.8414C200.931 29.058 200.009 28.4386 198.936 27.9831C197.882 27.5277 196.734 27.3 195.491 27.3H194.051V43.4227H195.548C196.564 43.4227 197.581 43.2769 198.597 42.9854C199.632 42.6757 200.564 42.2112 201.392 41.5918C202.22 40.9542 202.889 40.1617 203.397 39.2144C203.924 38.2671 204.187 37.1467 204.187 35.8532Z" fill="#474442"/>
<path d="M1.73096 0.619141C14.1749 29.0434 25.3194 68.695 108.807 61.3597C118.008 60.2135 135.505 57.4628 144.329 55.1705C152.438 53.0639 199.534 43.4799 228.269 81.7609" stroke="#474442" stroke-width="0.695305"/>
</svg>
