<svg width="32" height="32" fill="none" xmlns="http://www.w3.org/2000/svg"><rect width="32" height="32" rx="5" fill="#F5F4F2"/><path d="M13.149 26.985h.177v.349H8.332v-.349h.177c.165 0 .319-.07.46-.209.142-.139.26-.302.355-.488.118-.185.2-.383.248-.592a3.18 3.18 0 0 0 .07-.627V6.495c0-.163-.023-.349-.07-.558a1.864 1.864 0 0 0-.248-.592 1.39 1.39 0 0 0-.354-.453.648.648 0 0 0-.46-.21h-.178v-.348h6.162c2.362 0 4.18.453 5.455 1.36 1.298.905 1.948 2.241 1.948 4.007 0 .883-.154 1.66-.46 2.335a5.39 5.39 0 0 1-1.17 1.707 6.252 6.252 0 0 1-1.77 1.15 10.22 10.22 0 0 1-2.125.627l2.55 3.834c.613.929 1.24 1.847 1.877 2.753.637.883 1.263 1.8 1.877 2.753.165.232.342.476.531.732.212.255.425.487.637.697.237.209.473.383.709.522.26.116.52.174.779.174v.349h-1.523c-.944 0-1.724-.22-2.337-.662a6.877 6.877 0 0 1-1.488-1.603 406.45 406.45 0 0 1-3.187-4.67 407.884 407.884 0 0 0-3.117-4.67 64.27 64.27 0 0 0-.85-.07 55.767 55.767 0 0 1-.815-.139v9.549c0 .186.024.395.071.627.047.21.118.407.213.592.118.186.236.349.354.488.141.14.307.21.496.21ZM12.015 5.52v8.851h.177c.19.024.485.047.886.07h1.558c.496 0 1.016-.07 1.559-.209a4.864 4.864 0 0 0 1.558-.767 4.22 4.22 0 0 0 1.204-1.428c.33-.581.496-1.313.496-2.196 0-.883-.177-1.603-.531-2.16a3.518 3.518 0 0 0-1.417-1.325c-.59-.325-1.31-.546-2.16-.662a20.742 20.742 0 0 0-2.798-.174h-.532Z" fill="#474442"/></svg>