<svg width="32" height="32" viewBox="0 0 32 32" fill="none" xmlns="http://www.w3.org/2000/svg">
<rect width="32" height="32" rx="5" fill="#F5F4F2"/>
<path d="M13.1487 26.9855H13.3258V27.334H8.33203V26.9855H8.50911C8.67439 26.9855 8.82786 26.9158 8.96953 26.7764C9.1112 26.637 9.22925 26.4744 9.3237 26.2885C9.44175 26.1027 9.52439 25.9052 9.57161 25.6961C9.61884 25.4638 9.64245 25.2547 9.64245 25.0688V6.49459C9.64245 6.33196 9.61884 6.14611 9.57161 5.93701C9.52439 5.72792 9.44175 5.53045 9.3237 5.34459C9.22925 5.15873 9.1112 5.00772 8.96953 4.89156C8.82786 4.75217 8.67439 4.68247 8.50911 4.68247H8.33203V4.33398H14.4945C16.8556 4.33398 18.6737 4.78701 19.9487 5.69307C21.2473 6.59914 21.8966 7.93499 21.8966 9.70065C21.8966 10.5835 21.7431 11.3618 21.4362 12.0355C21.1529 12.686 20.7633 13.2552 20.2674 13.7431C19.7716 14.2077 19.1813 14.5911 18.4966 14.8931C17.8355 15.1719 17.1272 15.381 16.3716 15.5203L18.9216 19.3537C19.5355 20.283 20.1612 21.2006 20.7987 22.1067C21.4362 22.9895 22.0619 23.9072 22.6758 24.8597C22.8411 25.0921 23.0181 25.336 23.207 25.5916C23.4195 25.8471 23.632 26.0794 23.8445 26.2885C24.0806 26.4976 24.3168 26.6719 24.5529 26.8113C24.8126 26.9274 25.0723 26.9855 25.332 26.9855V27.334H23.8091C22.8647 27.334 22.0855 27.1133 21.4716 26.6719C20.8813 26.2072 20.3855 25.6729 19.9841 25.0688C18.9216 23.5355 17.8591 21.9789 16.7966 20.3991C15.7577 18.8193 14.7188 17.2628 13.6799 15.7294C13.4202 15.7062 13.1369 15.683 12.8299 15.6597C12.5466 15.6133 12.2751 15.5668 12.0154 15.5203V25.0688C12.0154 25.2547 12.039 25.4638 12.0862 25.6961C12.1334 25.9052 12.2043 26.1027 12.2987 26.2885C12.4168 26.4744 12.5348 26.637 12.6529 26.7764C12.7945 26.9158 12.9598 26.9855 13.1487 26.9855ZM12.0154 5.51883V14.3703H12.1924C12.3813 14.3936 12.6765 14.4168 13.0779 14.44C13.5029 14.44 14.0223 14.44 14.6362 14.44C15.132 14.44 15.6515 14.3703 16.1945 14.231C16.7612 14.0683 17.2806 13.8128 17.7529 13.4643C18.2487 13.0926 18.6501 12.6163 18.957 12.0355C19.2876 11.4547 19.4529 10.7229 19.4529 9.84004C19.4529 8.95722 19.2758 8.23701 18.9216 7.67944C18.5911 7.12186 18.1188 6.68045 17.5049 6.3552C16.9147 6.02994 16.1945 5.80924 15.3445 5.69307C14.4945 5.57691 13.5619 5.51883 12.5466 5.51883H12.0154Z" fill="#474442"/>
</svg>
