<svg width="176" height="33" fill="none" xmlns="http://www.w3.org/2000/svg"><g clip-path="url(#a)" fill="#474442"><path d="M38.272 16.887c0-.539.216-1.087.216-1.64 0-.554-.156-1.092-.166-1.646-.01-.553.146-1.096.13-1.65-.014-.553-.03-1.091-.05-1.645-.02-.553-.225-1.062-.25-1.615-.489-.201-.99-.368-1.503-.499-.5-.09-1.047 0-1.593-.03s-1.037-.05-1.578-.07c-.54-.02-1.047 0-1.583 0s-1.057-.214-1.593-.199c-.536.015-1.057.11-1.588.13-.531.02-1.057.065-1.583.08s-1.062.08-1.588.09h-.386c-.325 0-.651-.07-.967-.09h-.23c-.446 0-1.002-.085-1.598-.09-.501 0-1.042.174-1.608.17-.566-.006-1.057.074-1.608.08h-1.603c-.541 0-1.082-.07-1.603-.05-.521.02-1.098.08-1.593.119-.597.05-1.128.125-1.588.2-.782.129-1.268.284-1.423.498a4.64 4.64 0 0 0-.316 1.565c-.04.454 0 .997-.025 1.605-.03.5-.13 1.033-.155 1.6-.025.57-.08 1.053-.105 1.611-.025.558.045 1.062.025 1.61-.02.549-.196 1.057-.21 1.6-.016.544-.056 1.072-.07 1.61-.016.54.18 1.082.164 1.61-.015.53-.125 1.093-.125 1.591 0 .499.085 1.087.075 1.605-.01.519.035 1.097.03 1.606-.005.508-.105 1.126-.105 1.625 0 .603-.145 1.146-.14 1.605-.013.52.107 1.035.35 1.496.356.459.877.763 1.453.847.501.09 1.107 0 1.749.06.54.04 1.122.18 1.728.2.606.02 1.152-.165 1.738-.165h1.739c.57 0 1.187.1 1.738.08.631 0 1.217-.09 1.728-.115.58-.053 1.155-.14 1.724-.26.28 0 .846.18 1.573.185.46 0 1.002-.16 1.563-.154.56.005 1.002 0 1.568 0 .566 0 1.037.084 1.563.08.526-.006 1.057 0 1.568 0 .51 0 1.077.08 1.568.054.576-.03 1.117-.055 1.568-.11a3.067 3.067 0 0 0 1.543-.473c.165-.184.135-.818.305-1.645.1-.454.376-.957.471-1.58.07-.499.065-1.052.135-1.646.055-.498.055-1.061.105-1.635 0-.184.05-.374.086-.568l-.19.075c-.427-.743-.817-1.227-1.053-1.62a5.791 5.791 0 0 0-1.097-1.54 7.675 7.675 0 0 0-.716 1.495c-.19.573-.35 1.181-.501 1.625-.216.723-.386 1.296-.546 1.735-.33.892-.556 1.4-1.092 1.35-.431-.04-.747-.498-1.223-1.36-.23-.414-.395-.997-.726-1.68-.13-.264-.406-.588-.546-.863-.24.554-.581 1.291-.802 1.845-.315.788-.335 1.495-.536 1.949-.536 1.246-.881 1.271-1.297 1.306-.316 0-.451.12-1.057-1.112-.2-.403-.501-.892-.807-1.6-.195-.498-.456-.997-.706-1.65-.195-.498-.376-1.072-.611-1.69-.196-.498-.326-.997-.551-1.6.5-.499.5-.693 1.207-.688.19.498.276 1.191.476 1.71.2.518.591.997.787 1.495.195.499.38 1.097.576 1.576.245.598.43 1.091.616 1.495.23-.543.5-1.186.686-1.71.316-.787.501-1.416.716-1.874.531-1.246.807-1.556 1.228-1.585.42-.03.776.289 1.167.997.185.339.406.787.686 1.36.216.44.421 1.147.677 1.616.14-.419.32-.997.45-1.416.176-.593.336-1.137.502-1.62.195-.528.418-1.045.666-1.55.325-.763.58-1.157.881-1.302.301-.144.597-.678 1.503.464.29.354.501.942.942 1.62.14.23.276.459.42.718v-.693c.031-.533.211-1.072.231-1.635.02-.563-.12-1.092-.105-1.65.015-.559.065-1.067.075-1.63Zm-17.829-.434c-.392.302-.81.57-1.247.803-.376.194-.847.349-1.368.583-.406.184-.907.498-1.418.728a1.446 1.446 0 0 1-.526-1.376c.561-.24 1.253-.414 1.809-.678a14.96 14.96 0 0 0 1.593-.967 18.084 18.084 0 0 0-1.648-.768c-.561-.215-1.178-.374-1.744-.563a1.2 1.2 0 0 1 .476-1.307c.662.22 1.223.29 1.709.469a14 14 0 0 1 1.598.867c1.222.589 1.362.813 1.422.998.086.289.146.593-.656 1.21Zm11.312-.783a4.924 4.924 0 0 1-.32-1.994c.011-.684.1-1.364.265-2.029.696.19 1.052.2 1.287.534-.135.498-.35 1.929 0 2.816-.105.823-.52.603-1.232.653v.02Zm2.69.125a4.018 4.018 0 0 1-.446-1.76 8.151 8.151 0 0 1 .501-2.168 4.217 4.217 0 0 1 1.503.558c-.075.23-1.002.972-1.002 1.47 0 .42.957 1.047 1.127 1.376-.31.683-.972.46-1.683.504v.02Z"/><path d="M10.219 26.448c-.587-.04-1.198-.204-1.749-.284-.55-.08-1.177-.045-1.713-.17-.536-.124-1.087-.468-1.603-.633-.516-.164-1.197-.19-1.683-.394a14.35 14.35 0 0 1-1.503-.802C1.086 23.696.5 23.277.5 23.133c0-.145.386-.698 1.002-1.341.326-.32.821-.584 1.302-.997.386-.31.702-.758 1.203-1.117.5-.359.921-.528 1.392-.862.471-.334.812-.688 1.293-.997.48-.31.856-.574 1.322-.868-.426-.367-.83-.76-1.207-1.176-.336-.404-.581-.958-.952-1.441-.37-.484-.596-.962-.942-1.446-.345-.483-.876-.787-1.197-1.266-.32-.479-.44-1.087-.711-1.565-.27-.479-.611-.997-.867-1.496-.3-.568-.636-1.052-.816-1.496-.321-.782-.471-1.43-.26-1.71.21-.279.78-.299 1.532-.368a15.293 15.293 0 0 1 1.558 0c.5 0 1.002-.07 1.568-.03.566.04 1.002.154 1.553.214.551.06 1.037.13 1.553.2s1.052.114 1.553.189c.5.075 1.037.284 1.528.369.49.085 1.097.095 1.558.184.646.13 1.132.21 1.478.31.195-.36.5-.738.806-1.257.24-.419.501-.877.767-1.331.265-.454.59-.852.881-1.256.304-.412.64-.8 1.002-1.162.501-.498.872-.952 1.233-.892.36.06.706.498 1.237.997.34.324.756.673 1.137 1.107.38.433.651.817 1.002 1.24.35.425.787.749 1.092 1.172.306.424.421 1.042.691 1.456.341.499.667.858.852 1.226-.5.499-.5.738-1.202.823-.23-.459-.501-1.032-.767-1.47-.265-.44-.626-.833-.916-1.247-.29-.414-.501-.967-.787-1.34-.35-.383-.723-.745-1.117-1.083a2.326 2.326 0 0 0-1.227-.802c-.336 0-.672.349-1.133.957-.359.396-.694.814-1.002 1.251-.26.439-.425.967-.69 1.456-.266.488-.502.947-.757 1.42-.11.16-.17.11-.35.185a.79.79 0 0 1-.547.07 21.5 21.5 0 0 0-1.598-.389c-.596-.125-1.092-.07-1.658-.16-.566-.09-1.087-.179-1.638-.244-.551-.065-1.092-.259-1.633-.309-.541-.05-1.138-.115-1.659-.14-.61-.034-1.177.055-1.658.06-.886 0-1.428.095-1.563.23-.235.234-.396.742-.105 1.495.227.498.495.977.802 1.431.245.419.53.882.881 1.366.3.404.651.818 1.002 1.266.35.449.782.713 1.172 1.137.391.424.707.783 1.113 1.181.405.4.68.813 1.097 1.197.3.533.476.498.436 1.126-.03.374-.221.28-.502.499-.5.289-.946.683-1.452.997-.506.314-1.047.563-1.503.897-.456.334-1.002.693-1.443 1.027-.526.39-1.067.678-1.468.997-.5.365-.936.812-1.287 1.321.105.274.711.499 1.453.738.49.217.991.407 1.502.569.501.11 1.052.074 1.604.174.55.1 1.001.29 1.563.374.56.085 1.067.114 1.593.18.49.568.32.832.02 1.485Z"/><path d="M10.219 26.448c-.587-.04-1.198-.204-1.749-.284-.55-.08-1.177-.045-1.713-.17-.536-.124-1.087-.468-1.603-.633-.516-.164-1.197-.19-1.683-.394a14.35 14.35 0 0 1-1.503-.802C1.086 23.696.5 23.277.5 23.133c0-.145.386-.698 1.002-1.341.326-.32.821-.584 1.302-.997.386-.31.702-.758 1.203-1.117.5-.359.921-.528 1.392-.862.471-.334.812-.688 1.293-.997.48-.31.856-.574 1.322-.868-.426-.367-.83-.76-1.207-1.176-.336-.404-.581-.958-.952-1.441-.37-.484-.596-.962-.942-1.446-.345-.483-.876-.787-1.197-1.266-.32-.479-.44-1.087-.711-1.565-.27-.479-.611-.997-.867-1.496-.3-.568-.636-1.052-.816-1.496-.321-.782-.471-1.43-.26-1.71.21-.279.78-.299 1.532-.368a15.293 15.293 0 0 1 1.558 0c.5 0 1.002-.07 1.568-.03.566.04 1.002.154 1.553.214.551.06 1.037.13 1.553.2s1.052.114 1.553.189c.5.075 1.037.284 1.528.369.49.085 1.097.095 1.558.184.646.13 1.132.21 1.478.31.195-.36.5-.738.806-1.257.24-.419.501-.877.767-1.331.265-.454.59-.852.881-1.256.304-.412.64-.8 1.002-1.162.501-.498.872-.952 1.233-.892.36.06.706.498 1.237.997.34.324.756.673 1.137 1.107.38.433.651.817 1.002 1.24.35.425.787.749 1.092 1.172.306.424.421 1.042.691 1.456.341.499.667.858.852 1.226-.5.499-.5.738-1.202.823-.23-.459-.501-1.032-.767-1.47-.265-.44-.626-.833-.916-1.247-.29-.414-.501-.967-.787-1.34-.35-.383-.723-.745-1.117-1.083a2.326 2.326 0 0 0-1.227-.802c-.336 0-.672.349-1.133.957-.359.396-.694.814-1.002 1.251-.26.439-.425.967-.69 1.456-.266.488-.502.947-.757 1.42-.11.16-.17.11-.35.185a.79.79 0 0 1-.547.07 21.5 21.5 0 0 0-1.598-.389c-.596-.125-1.092-.07-1.658-.16-.566-.09-1.087-.179-1.638-.244-.551-.065-1.092-.259-1.633-.309-.541-.05-1.138-.115-1.659-.14-.61-.034-1.177.055-1.658.06-.886 0-1.428.095-1.563.23-.235.234-.396.742-.105 1.495.227.498.495.977.802 1.431.245.419.53.882.881 1.366.3.404.651.818 1.002 1.266.35.449.782.713 1.172 1.137.391.424.707.783 1.113 1.181.405.4.68.813 1.097 1.197.3.533.476.498.436 1.126-.03.374-.221.28-.502.499-.5.289-.946.683-1.452.997-.506.314-1.047.563-1.503.897-.456.334-1.002.693-1.443 1.027-.526.39-1.067.678-1.468.997-.5.365-.936.812-1.287 1.321.105.274.711.499 1.453.738.49.217.991.407 1.502.569.501.11 1.052.074 1.604.174.55.1 1.001.29 1.563.374.56.085 1.067.114 1.593.18.49.568.32.832.02 1.485ZM58.506 26.547a3.726 3.726 0 0 1-1.658-.458 3.28 3.28 0 0 1-1.383-1.027 4.67 4.67 0 0 1-.531-1.63 6.56 6.56 0 0 1-.21-1.526 8.21 8.21 0 0 1 .25-1.525c.097-.51.238-1.01.42-1.496.165-.498.378-.98.637-1.436.28-.437.617-.836 1.002-1.186a4.243 4.243 0 0 1 1.378-.703 4.229 4.229 0 0 1 1.598-.349 4.493 4.493 0 0 1 1.643.26c.53.215 1.024.507 1.468.867.413.322.784.696 1.102 1.111-.292.267-.61.506-.947.713a5.332 5.332 0 0 0-1.187-1.087 4.1 4.1 0 0 0-1.563-.668 3.085 3.085 0 0 0-1.709.12c-.45.246-.841.586-1.147.997a5.61 5.61 0 0 0-.891 1.221 7.568 7.568 0 0 0-.556 1.416c-.155.487-.261.988-.316 1.496a5.838 5.838 0 0 0 .095 1.53c.138.576.447 1.097.887 1.496a2.297 2.297 0 0 0 1.623.743h.095a8.556 8.556 0 0 0 1.768-.31 6.838 6.838 0 0 0 1.634-.687 6.52 6.52 0 0 0 1.502-.953 4.931 4.931 0 0 0 1.072-1.46c.375.136.736.303 1.083.498a4.823 4.823 0 0 1-.922 1.416 7.41 7.41 0 0 1-1.293 1.102c-.466.336-.97.617-1.503.837a8.639 8.639 0 0 1-1.643.449c-.557.119-1.123.19-1.693.214-.035.007-.07.012-.105.015ZM69.066 25.925c-.736 0-.937 0-1.047-.09-.11-.09-.24-.847-.38-1.72-.086-.498-.106-1.097-.176-1.725-.07-.628-.19-1.131-.245-1.72-.055-.588-.206-1.166-.25-1.725-.046-.558.074-1.236.04-1.744a37.126 37.126 0 0 1-.086-1.715c.005-.02-.095-.474.186-.633.105-.065.265-.135 1.612-.15H71.907c.5 0 1.077.085 1.663.1a1.063 1.063 0 0 1-.075 1.236c-.602 0-1.248-.14-1.844-.15-.596-.01-1.272.11-1.828.105-.777 0-1.443-.05-1.839-.04 0 .4.125 1.042.18 1.79.046.544.086 1.152.146 1.775s0 1.196.085 1.78c.085.583.19 1.23.26 1.764.1.783.216 1.401.296 1.74.521.026 1.044.011 1.563-.045.5-.06 1.002-.104 1.568-.184.566-.08 1.077-.29 1.583-.38a1.074 1.074 0 0 1 .175 1.202c-.586.105-1.117.2-1.588.275-.62.1-1.137.244-1.578.299a8.694 8.694 0 0 1-1.608-.045Z"/><path d="M68.24 20.814c-.266-.529-.24-.574-.05-1.137.5-.035 1.001-.035 1.628-.055.626-.02 1.182-.04 1.713-.045.932 0 1.678-.06 1.743-.06.03.594-.12.594-.13 1.192 0 0-.641.055-1.583.065-.501 0-1.112-.11-1.688-.09-.576.02-1.153.095-1.633.13ZM83.925 19.324a4.682 4.682 0 0 0-.837-1.495 6.345 6.345 0 0 0-1.252-1.177 9.192 9.192 0 0 0-1.503-.887 12.905 12.905 0 0 0-1.643-.588 10.322 10.322 0 0 0-1.718-.25.504.504 0 0 0-.555.217.496.496 0 0 0-.072.197 11.29 11.29 0 0 0-.205 1.575c-.04.469-.13.997-.165 1.605-.03.5 0 1.062 0 1.616 0 .553-.146 1.076-.15 1.61-.006.533.11 1.097.13 1.605 0 .593 0 1.147.07 1.61.11.773.295 1.346.57 1.496.2.11.424.17.652.175.497-.03.989-.12 1.463-.27.474-.137.94-.303 1.393-.498.444-.211.874-.45 1.287-.718a8.417 8.417 0 0 0 1.478-.997 5.06 5.06 0 0 0 1.042-1.44 3.787 3.787 0 0 0 .28-1.72 4.77 4.77 0 0 0-.265-1.666Zm-1.182 3.17c-.298.436-.665.82-1.087 1.137a8.265 8.265 0 0 1-1.343.858c-.487.22-.99.405-1.503.553-.484.17-.99.273-1.503.304a7.446 7.446 0 0 1-.22-1.495c0-.459.08-.997.075-1.546-.005-.548-.11-.997-.105-1.55.005-.553.08-1.042.1-1.546.02-.503.055-1.071.08-1.54.04-.638.09-1.112.13-1.495.53.054 1.053.147 1.568.279.518.18 1.02.4 1.503.658.481.268.927.594 1.328.972.404.385.727.848.947 1.36a3.56 3.56 0 0 1 .34 1.566 2.775 2.775 0 0 1-.31 1.486ZM93.067 23.985c-.436-.249-1.002-.448-1.503-.742-.5-.294-.922-.648-1.372-.923-.541-.329-1.063-.598-1.428-.842.035 0 .095-.13.135-.14.501-.15 1.112-.279 1.713-.498.562-.194 1.11-.427 1.639-.698a5.124 5.124 0 0 0 1.457-.997 1.99 1.99 0 0 0 .456-1.65 1.871 1.871 0 0 0-.621-1.157 3.33 3.33 0 0 0-1.167-.693 7.27 7.27 0 0 0-1.478-.423c-.507-.12-1.02-.21-1.538-.275a12.47 12.47 0 0 0-1.558.105c-.51 0-1.01.138-1.448.399-.14.124-.28.2-.25 1.665 0 .454-.03 1.037 0 1.785.035.498 0 1.111.055 1.794.045.539.245 1.117.305 1.775.055.548.11 1.142.176 1.78.055.558.045 1.136.11 1.77.556.224.806.383 1.107-.145-.07-.658-.045-1.281-.105-1.944s-.1-1.306-.155-1.955c.36.34.745.653 1.152.938.406.269.931.413 1.387.688.456.274.877.563 1.313.807.436.245.922.569 1.328.783.786.429 1.292.703 1.312.708.18-.564.326-.534.406-1.122-.136-.08-.712-.389-1.428-.793Zm-5.51-3.395c-.046-.498-.216-.947-.251-1.4-.035-.534-.07-1.022-.09-1.446-.02-.489-.012-.978.025-1.466a9.429 9.429 0 0 1 1.798-.17c.599.024 1.195.09 1.784.195.578.115 1.13.335 1.628.648.5.314.606.559.621.658.06.499-.376.997-1.047 1.401-.537.294-1.099.54-1.678.738-.651.24-1.308.369-1.753.498-.36.09-.71.204-1.053.345h.016ZM106.703 18.483a4.605 4.605 0 0 0-.716-1.381 5.346 5.346 0 0 0-1.127-1.092 7.194 7.194 0 0 0-1.418-.663 8.17 8.17 0 0 0-1.458-.573 13.485 13.485 0 0 0-1.553-.175v-.07a2.607 2.607 0 0 0-1.693.619 5.256 5.256 0 0 0-1.403 1.186 8.643 8.643 0 0 0-.831 1.65 9.1 9.1 0 0 0-.551 1.75 7.8 7.8 0 0 0-.22 1.675 6.28 6.28 0 0 0 .29 1.665c.13.56.354 1.094.661 1.58.335.468.749.874 1.223 1.202a6.091 6.091 0 0 0 1.583.633c.993.318 2.059.332 3.06.04a5.509 5.509 0 0 0 1.338-.668c.454-.229.879-.51 1.267-.838a7.272 7.272 0 0 0 1.047-1.406 6.96 6.96 0 0 0 .552-1.68c.17-.561.261-1.143.27-1.73a5.433 5.433 0 0 0-.321-1.724Zm-.941 2.278a5.36 5.36 0 0 1-.431 1.844 5.78 5.78 0 0 1-1.142 1.496c-.346.417-.753.78-1.208 1.077a4.199 4.199 0 0 1-1.578.309 3.89 3.89 0 0 1-1.588-.085 4.546 4.546 0 0 1-1.503-.778 3.563 3.563 0 0 1-.977-1.366 4.693 4.693 0 0 1-.415-1.63 6.06 6.06 0 0 1 .25-1.665 8.165 8.165 0 0 1 .581-1.73c.228-.571.53-1.11.897-1.605.38-.51.947-.85 1.578-.947.03 0 .06.065.085.065a10.63 10.63 0 0 1 1.603.264 6.852 6.852 0 0 1 1.503.603c.478.242.912.562 1.283.947.402.363.724.804.946 1.297.182.617.223 1.268.121 1.904h-.005ZM117.133 26.328c-.596-.045-.746 0-1.087-.498.281-.499.662-.967.922-1.426.261-.459.541-.997.802-1.44.26-.445.581-.968.841-1.417l.837-1.42c.305-.499.476-1.057.731-1.496.326-.538.707-.947.957-1.351.371-.583.541-1.112.782-1.456.776-1.116 1.052-1.066 1.187-1.097.331-.08.601-.194 1.162.903.269.485.511.984.727 1.495.175.434.275.997.5 1.566.171.463.341.997.552 1.55.17.499.345.997.541 1.55.195.554.445.998.641 1.521.195.523.335.997.526 1.56.19.564.32.997.35 1.072-.536.26-.601.105-1.172.28a18.976 18.976 0 0 1-.34-.953c-.196-.578-.396-1.032-.562-1.495-.165-.464-.33-1.062-.5-1.536-.196-.548-.316-1.077-.501-1.535-.211-.563-.471-1.042-.642-1.496-.22-.588-.501-1.057-.651-1.495-.28-.698-.416-1.222-.566-1.526-.235.33-.631.783-1.002 1.381-.27.429-.526.937-.842 1.466-.315.528-.47.997-.771 1.495-.301.499-.586.942-.882 1.446-.295.504-.636.957-.921 1.456-.286.498-.501.997-.777 1.495-.275.499-.566.913-.842 1.401ZM139.266 24.254c-.031-.543-.111-1.171-.146-1.844-.03-.594-.08-1.222-.115-1.845s-.12-1.077-.15-1.535c-.035-.594-.04-1.102-.07-1.54-.05-.654 0-1.162-.045-1.541-.146-1.162-.391-1.107-.717-1.172-.325-.065-.531-.22-1.403 1.122-.265.414-.601.957-1.042 1.665-.29.498-.596 1.057-1.001 1.695-.246.399-.446.877-.722 1.321-.275.444-.581.828-.841 1.251-.261.424-.451.933-.702 1.331-.305.499-.671.868-.907 1.217-.065-.499-.09-1.132-.155-1.825-.05-.578-.205-1.186-.255-1.814-.05-.629-.106-1.232-.146-1.825-.04-.593 0-1.286-.045-1.825-.05-.827-.09-1.44-.1-1.695.075-.024.095-.044 0-.044v-.05c-.29-.075-.596-.32-.596 0a.14.14 0 0 0 0 .05 4.636 4.636 0 0 0-.601 0c0 .06.13.687.195 1.685.03.498-.075 1.116-.035 1.75.04.633.135 1.15.181 1.74.055.747-.001 1.4.07 1.958.07.823.2 1.451.26 1.945.201 1.585.406 1.625.636 1.75.126.074.206.239.326.239.23 0 .551-.264 1.142-1.107.236-.334.526-.768.882-1.321.245-.384.446-.882.761-1.391.256-.404.546-.843.852-1.336.255-.419.546-.858.842-1.346.295-.489.586-1.072.896-1.575.311-.504.742-1.052 1.002-1.496.04.439.155.952.196 1.53.035.5-.051.998 0 1.556.05.558.065 1.032.095 1.545.03.514.12 1.052.15 1.546.03.493.065 1.087.09 1.54.04.803 0 1.45 0 1.625.591.085.606-.094 1.203-.134.06-.095.085-.763.015-1.8Zm-7.64 1.072s.05.03.05.06l-.05-.06ZM142.973 25.78c-.546.24-.672.11-1.208-.154 0-.558-.085-1.032-.075-1.535.01-.504.161-1.087.171-1.58.01-.494-.091-1.072-.091-1.571 0-.583.03-1.112.051-1.585 0-.609.2-1.122.225-1.576.035-.668.045-1.181.085-1.58.125-1.266.266-1.291.471-1.386.07-.035.18-.085 1.503-.19.391-.03.892-.044 1.528-.084.441-.03.942-.12 1.503-.155.461-.024 1.002-.1 1.568-.124.28.523.24.648 0 1.191-.601.035-1.183.135-1.779.17-.596.035-1.262 0-1.813.055-.787.05-1.503.05-1.854.09-.04.333.035.966 0 1.704-.025.499-.155 1.037-.18 1.64 0 .499-.055 1.072-.075 1.65-.02.579-.04 1.087-.06 1.65-.02.564.105 1.102.09 1.656-.015.553-.05 1.171-.06 1.715ZM148.283 26.608a4.74 4.74 0 0 1-1.037-.598c.23-.375.441-.761.631-1.157.171-.349.316-.773.501-1.186.186-.414.466-.878.697-1.371.23-.494.305-.973.531-1.446.225-.474.591-.997.811-1.426.256-.543.431-1.062.641-1.495.276-.564.451-1.082.657-1.496.31-.618.571-1.087.771-1.44.626-1.132.852-1.092 1.122-1.092.271 0 .416 0 1.027 1.276.186.399.531.867.822 1.55.19.459.25 1.057.501 1.675.195.499.466.997.701 1.605.201.499.501.997.732 1.59.2.5.415 1.048.641 1.626.225.578.386 1.067.606 1.64.18.454.3.813.326.867-.536.27-.607.115-1.163.34a6.9 6.9 0 0 1-.34-.753c-.221-.569-.366-1.137-.566-1.645-.201-.509-.501-1.087-.717-1.59-.23-.584-.371-1.152-.571-1.646-.24-.598-.441-1.141-.641-1.625-.251-.623-.501-1.152-.676-1.6-.306-.718-.551-1.177-.717-1.54-.175.323-.426.722-.751 1.37-.201.404-.426.883-.697 1.446-.21.434-.46.902-.716 1.44-.21.45-.501.913-.726 1.441-.226.529-.301.997-.501 1.456-.201.459-.616.882-.817 1.311-.245.499-.426.922-.576 1.241-.193.4-.362.812-.506 1.232Z"/><path d="M154.394 22.007c-.651 0-1.382.055-2.048.05h-2.059c-.046-.593-.146-.613.07-1.167.471 0 1.112-.035 1.878-.035.647 0 1.333.05 1.944.05 1.002 0 1.783-.03 1.939-.04.094.39.106.793.035 1.187-.156.01-.857-.045-1.759-.045ZM171.447 26.09c-.22-.499-.391-1.032-.621-1.55-.231-.52-.471-1.033-.701-1.546-.231-.514-.566-.997-.797-1.496-.23-.498-.421-1.077-.656-1.565-.236-.489-.501-1.052-.752-1.526-.28-.558-.501-1.091-.741-1.525a9.04 9.04 0 0 0-.957-1.371c-.252.454-.471.926-.656 1.41-.165.44-.241.998-.426 1.536-.16.469-.421.947-.591 1.496-.17.548-.271.997-.431 1.53-.16.534-.285.997-.436 1.53-.15.534-.38.998-.526 1.496-.145.499-.26.967-.396 1.496-.591.09-.686.14-1.147-.24.146-.533.296-1.041.426-1.525.13-.483.246-1.062.381-1.54.135-.479.361-1.032.501-1.496.14-.463.27-1.062.421-1.525.175-.559.315-1.067.47-1.496.196-.573.361-1.077.526-1.495.198-.492.42-.973.667-1.441.546-1.062.897-.997 1.082-.997.185 0 .456-.115 1.202.937.352.437.675.897.967 1.376.235.424.526.902.817 1.495.23.45.46.963.731 1.496.225.469.446.997.701 1.536.256.538.366 1.026.606 1.575.241.548.562.947.802 1.495.24.549.426 1.037.661 1.576-.155.508-.531.378-1.127.354ZM174.939 26.392c-.381.055-.887-.662-.852-.997.035-.334.737-.618 1.122-.348.386.269.466 1.23-.27 1.345Z"/><path d="M169.99 21.438c-.682.498-.807.05-1.644.05-.836 0-.841-.05-1.678-.05-.836 0-.836.134-1.678.134s-1.002.419-1.698-.065a.713.713 0 0 1-.267-.98.713.713 0 0 1 .267-.261c.681-.498.851.05 1.693.05.842 0 .837-.08 1.673-.08.837 0 .837.115 1.678.115.842 0 .887-.35 1.674-.055.596.23.465.797-.02 1.142ZM112.785 23.203c-.461.184-.531.11-1.002-.08 0-.409 0-.997.025-1.62 0-.553-.06-1.142-.04-1.665.02-.546.068-1.09.145-1.63a8.315 8.315 0 0 1 1.002-.025s-.095.768-.125 1.68c0 .498.12 1.107.105 1.66-.01.643-.11 1.281-.11 1.68Z"/><path d="M114.428 21.248c-.431 0-.962-.1-1.503-.12-.541-.02-1.037-.09-1.503-.12a37.997 37.997 0 0 0-1.578-.054c.036-.335.089-.668.161-.997 0 0 .671.085 1.548.135.5.03 1.047 0 1.578 0h1.658c.2.453-.1.533-.136 1.027-.095.035-.125.13-.225.13Z"/></g><defs><clipPath id="a"><path fill="#fff" transform="translate(.5 .5)" d="M0 0h175v32H0z"/></clipPath></defs></svg>