<svg width="230" height="83" fill="none" xmlns="http://www.w3.org/2000/svg"><path d="M56.05 44.106h.14v.273h-3.98v-.273h.14a.52.52 0 0 0 .368-.164c.113-.11.207-.237.282-.383.094-.145.16-.3.198-.464.037-.182.056-.346.056-.492V28.038c0-.128-.019-.273-.056-.437a1.45 1.45 0 0 0-.198-.465 1.093 1.093 0 0 0-.282-.355.52.52 0 0 0-.367-.164h-.142v-.274h4.913c1.883 0 3.332.356 4.348 1.066 1.035.71 1.553 1.758 1.553 3.143 0 .692-.122 1.302-.367 1.83-.226.51-.536.957-.932 1.34a4.993 4.993 0 0 1-1.411.901 8.258 8.258 0 0 1-1.694.492l2.032 3.006c.49.729.989 1.449 1.497 2.16a49.404 49.404 0 0 1 1.496 2.158c.132.182.273.373.424.574.17.2.339.382.508.546.188.164.377.3.565.41.207.091.414.137.62.137v.273h-1.213c-.753 0-1.374-.173-1.864-.52a5.432 5.432 0 0 1-1.185-1.256 319.091 319.091 0 0 1-2.542-3.662 319.375 319.375 0 0 0-2.484-3.662 50.785 50.785 0 0 0-.678-.054 46.307 46.307 0 0 1-.65-.11v7.488c0 .146.02.31.057.492.038.164.094.319.17.464.094.146.188.274.282.383a.55.55 0 0 0 .395.164Zm-.904-16.833v6.94h.141c.15.019.386.037.706.055h1.242c.395 0 .81-.054 1.242-.164a3.9 3.9 0 0 0 1.243-.6c.395-.292.715-.666.96-1.121.263-.456.395-1.03.395-1.722s-.141-1.257-.424-1.694a2.787 2.787 0 0 0-1.129-1.038c-.47-.256-1.045-.429-1.722-.52a16.804 16.804 0 0 0-2.23-.136h-.424ZM67.09 44.106h.141a.61.61 0 0 0 .395-.137 1.46 1.46 0 0 0 .283-.382c.094-.146.16-.301.197-.465a1.43 1.43 0 0 0 .085-.465v-14.62c0-.127-.028-.272-.085-.436a1.45 1.45 0 0 0-.197-.465 1.093 1.093 0 0 0-.283-.355.55.55 0 0 0-.395-.164h-.141v-.274h10.87v2.542h-.282a1.752 1.752 0 0 0-.508-1.093c-.302-.328-.772-.492-1.412-.492h-5.675v6.914h4.687c.433 0 .79-.128 1.073-.383.3-.255.451-.556.451-.902h.283v3.416h-.283c0-.328-.14-.61-.423-.847s-.65-.355-1.101-.355h-4.687v8.28h6.183c.358 0 .668-.082.932-.246.263-.164.48-.355.65-.574.187-.237.32-.483.394-.738.094-.273.142-.5.142-.683h.282v3.197H67.09v-.273ZM91.861 39.542c0 .911-.188 1.694-.565 2.35a4.735 4.735 0 0 1-1.468 1.558c-.583.4-1.251.692-2.004.874a9.117 9.117 0 0 1-2.203.274c-.752 0-1.402-.073-1.948-.219-.546-.146-1.044-.282-1.496-.41a11.537 11.537 0 0 0-.819-.218 2.56 2.56 0 0 0-.734-.11v-3.115h.282c0 .692.18 1.248.537 1.667.376.4.81.71 1.299.93.489.218.978.363 1.468.436.49.055.847.082 1.073.082.809 0 1.505-.109 2.089-.328.584-.236 1.063-.537 1.44-.901.376-.383.65-.802.819-1.257.188-.456.282-.92.282-1.394 0-.601-.132-1.102-.395-1.503a3.884 3.884 0 0 0-1.045-1.093 6.302 6.302 0 0 0-1.44-.793c-.546-.218-1.101-.437-1.666-.655-.64-.237-1.27-.483-1.891-.738a7.624 7.624 0 0 1-1.666-.93 4.77 4.77 0 0 1-1.186-1.338c-.301-.529-.452-1.175-.452-1.94 0-.802.16-1.494.48-2.077a4.275 4.275 0 0 1 1.27-1.476 5.783 5.783 0 0 1 1.836-.847c.696-.2 1.402-.3 2.118-.3.489 0 .95.036 1.383.109.433.054.847.127 1.242.218.32.073.63.137.932.192.301.036.593.054.875.054v2.815h-.282c-.038-.947-.424-1.585-1.158-1.913-.734-.346-1.75-.52-3.049-.52-.753 0-1.374.128-1.863.383-.47.237-.847.538-1.13.902-.282.346-.48.729-.593 1.148-.094.4-.14.756-.14 1.066 0 .51.112.947.338 1.311.245.364.565.683.96.957.395.273.847.519 1.355.737.527.22 1.073.429 1.638.629.64.237 1.29.492 1.948.765.659.273 1.242.61 1.75 1.011.528.401.951.893 1.271 1.476.339.583.508 1.293.508 2.131ZM103.252 44.106h.141c.452 0 .678-.2.678-.601 0-.146-.028-.3-.085-.465l-2.541-6.64h-4.94l-2.457 6.53a1.137 1.137 0 0 0-.085.41c0 .237.066.429.198.575a.602.602 0 0 0 .423.19h.142v.274h-3.134v-.273h.14c.246 0 .48-.137.707-.41a3.62 3.62 0 0 0 .593-1.011l6.465-16.67 6.325 16.506c.131.364.31.72.536 1.066.245.346.555.519.932.519h.141v.273h-4.179v-.273Zm-6.465-8.635h4.348l-2.174-5.712-2.174 5.712ZM108.754 44.106h.141c.15 0 .282-.046.395-.137.113-.11.207-.237.282-.382.094-.146.16-.301.198-.465.056-.164.085-.319.085-.465v-14.62c0-.127-.029-.272-.085-.436a1.46 1.46 0 0 0-.198-.465 1.087 1.087 0 0 0-.282-.355.551.551 0 0 0-.395-.164h-.141v-.274h4.065v.274h-.141a.55.55 0 0 0-.395.164c-.113.09-.207.21-.283.355-.075.146-.141.3-.197.465-.038.164-.057.31-.057.437v15.33h6.184c.357 0 .668-.082.931-.246a2.25 2.25 0 0 0 .65-.601c.188-.255.32-.52.395-.793.094-.291.141-.555.141-.792h.283v3.443h-11.576v-.273ZM121.511 44.106h.141a.61.61 0 0 0 .395-.137c.113-.11.207-.237.283-.382.094-.146.16-.301.197-.465.057-.164.085-.319.085-.465v-14.62a1.35 1.35 0 0 0-.085-.436 1.436 1.436 0 0 0-.197-.465 1.103 1.103 0 0 0-.283-.355.55.55 0 0 0-.395-.164h-.141v-.274h10.87v2.542h-.282a1.75 1.75 0 0 0-.509-1.093c-.301-.328-.771-.492-1.411-.492h-5.675v6.914h4.687c.433 0 .79-.128 1.073-.383.301-.255.451-.556.451-.902h.283v3.416h-.283c0-.328-.141-.61-.423-.847-.283-.237-.65-.355-1.101-.355h-4.687v8.28h6.183c.358 0 .668-.082.932-.246a2.44 2.44 0 0 0 .649-.574c.188-.237.32-.483.395-.738.095-.273.142-.5.142-.683h.282v3.197h-11.576v-.273ZM162.877 26.617c-.376 0-.696.155-.96.464-.263.31-.442.647-.536 1.011l-5.139 16.396-4.404-13.444-4.405 13.472-5.167-16.396a3.005 3.005 0 0 0-.508-1.011c-.226-.328-.489-.492-.79-.492v-.274h4.009v.274c-.245 0-.452.1-.621.3-.151.183-.226.42-.226.71 0 .092.019.21.056.356l3.671 11.587 4.489-13.39 4.32 13.362 3.727-11.559c0-.036.009-.11.028-.218a1.16 1.16 0 0 0 .056-.301c0-.255-.075-.455-.226-.601-.15-.164-.301-.246-.451-.246v-.274h3.077v.274ZM170.762 44.106h.141c.451 0 .677-.2.677-.601 0-.146-.028-.3-.084-.465l-2.541-6.64h-4.941l-2.457 6.53a1.146 1.146 0 0 0-.084.41c0 .237.065.429.197.575a.603.603 0 0 0 .424.19h.141v.274h-3.134v-.273h.141c.245 0 .48-.137.706-.41.245-.291.442-.629.593-1.011l6.465-16.67 6.325 16.506c.132.364.31.72.536 1.066.245.346.556.519.932.519h.141v.273h-4.178v-.273Zm-6.466-8.635h4.348l-2.174-5.712-2.174 5.712ZM180.103 44.106h.141v.273h-3.981v-.273h.141a.52.52 0 0 0 .367-.164c.113-.11.207-.237.282-.383.094-.145.16-.3.198-.464.038-.182.056-.346.056-.492V28.038c0-.128-.018-.273-.056-.437a1.46 1.46 0 0 0-.198-.465 1.087 1.087 0 0 0-.282-.355.52.52 0 0 0-.367-.164h-.141v-.274h4.913c1.882 0 3.331.356 4.348 1.066 1.035.71 1.552 1.758 1.552 3.143 0 .692-.122 1.302-.367 1.83-.225.51-.536.957-.931 1.34a5.002 5.002 0 0 1-1.412.901 8.26 8.26 0 0 1-1.694.492l2.033 3.006c.489.729.988 1.449 1.496 2.16a50.118 50.118 0 0 1 1.497 2.158c.131.182.273.373.423.574.17.2.339.382.508.546.189.164.377.3.565.41.207.091.414.137.621.137v.273h-1.214c-.753 0-1.374-.173-1.863-.52a5.422 5.422 0 0 1-1.186-1.256 319.091 319.091 0 0 1-2.541-3.662 319.372 319.372 0 0 0-2.485-3.662 51.613 51.613 0 0 0-.677-.054 45.943 45.943 0 0 1-.65-.11v7.488c0 .146.019.31.057.492.037.164.094.319.169.464.094.146.188.274.282.383.113.11.245.164.396.164Zm-.904-16.833v6.94h.141c.151.019.386.037.706.055h1.242c.396 0 .81-.054 1.243-.164a3.903 3.903 0 0 0 1.242-.6 3.33 3.33 0 0 0 .96-1.121c.264-.456.395-1.03.395-1.722s-.141-1.257-.423-1.694a2.787 2.787 0 0 0-1.13-1.038c-.47-.256-1.044-.429-1.722-.52a16.794 16.794 0 0 0-2.23-.136h-.424ZM191.115 44.106h.141a.52.52 0 0 0 .367-.164c.113-.11.207-.237.283-.383.094-.145.16-.3.197-.464.038-.182.057-.346.057-.492V28.038c0-.128-.019-.273-.057-.437a1.95 1.95 0 0 0-.169-.465 1.09 1.09 0 0 0-.283-.355.548.548 0 0 0-.395-.164h-.141v-.274h5.449c1.487 0 2.824.256 4.009.766 1.186.492 2.184 1.166 2.993 2.022a8.574 8.574 0 0 1 1.892 2.897 9.192 9.192 0 0 1 .649 3.415 9.055 9.055 0 0 1-.621 3.28 8.346 8.346 0 0 1-1.863 2.842c-.828.838-1.864 1.52-3.106 2.049-1.242.51-2.682.765-4.32.765h-5.082v-.273Zm13.072-8.253a8.504 8.504 0 0 0-.649-3.306 8.02 8.02 0 0 0-1.835-2.706 8.496 8.496 0 0 0-2.767-1.858c-1.054-.455-2.202-.683-3.445-.683h-1.44v16.123h1.497c1.016 0 2.033-.146 3.049-.438a8.867 8.867 0 0 0 2.795-1.393 7.34 7.34 0 0 0 2.005-2.378c.527-.947.79-2.067.79-3.36Z" fill="#474442"/><path d="M1.731.62c12.444 28.423 23.588 68.075 107.076 60.74 9.201-1.146 26.698-3.897 35.522-6.19 8.109-2.106 55.205-11.69 83.94 26.59" stroke="#474442" stroke-width=".695"/></svg>