<svg width="15" height="17" fill="none" xmlns="http://www.w3.org/2000/svg"><path d="M15 7.288V4.32c-1.385 0-2.443-.371-3.125-1.092a4.658 4.658 0 0 1-1.11-2.947V.068L7.97 0v12.052a2.615 2.615 0 0 1-2.118 2.104 2.597 2.597 0 0 1-2.699-1.267 2.619 2.619 0 0 1 .254-2.979 2.603 2.603 0 0 1 2.875-.788V6.248a5.384 5.384 0 0 0-3.883.839 5.409 5.409 0 0 0-1.987 2.43 5.428 5.428 0 0 0 1.17 5.898 5.39 5.39 0 0 0 5.88 1.173 5.4 5.4 0 0 0 2.421-1.993 5.424 5.424 0 0 0 .868-3.67V6.143A7.524 7.524 0 0 0 15 7.288Z" fill="#474442"/></svg>