<svg width="19" height="11" fill="none" xmlns="http://www.w3.org/2000/svg"><path d="M18.585 9.486a1.175 1.175 0 0 0-.061-.114c-.316-.548-.919-1.22-1.808-2.017l-.02-.018-.009-.009-.01-.01h-.009c-.403-.37-.66-.62-.766-.748-.196-.243-.24-.49-.133-.739.076-.188.36-.587.852-1.195.259-.323.464-.581.615-.776 1.092-1.4 1.566-2.293 1.42-2.683l-.056-.09c-.038-.056-.136-.106-.294-.151a1.544 1.544 0 0 0-.605-.023L14.974.93a.367.367 0 0 0-.19.005l-.122.027-.048.023-.037.027a.415.415 0 0 0-.105.096.62.62 0 0 0-.094.16c-.297.736-.634 1.42-1.013 2.053-.234.377-.448.704-.644.981s-.36.48-.492.611a3.39 3.39 0 0 1-.36.315c-.107.08-.19.113-.246.1a7.135 7.135 0 0 1-.16-.036.616.616 0 0 1-.214-.224.974.974 0 0 1-.109-.355 3.803 3.803 0 0 1-.028-.808c.006-.189.01-.316.01-.383 0-.232.004-.483.014-.753l.023-.644c.007-.158.01-.325.01-.502 0-.176-.011-.314-.034-.415a1.382 1.382 0 0 0-.099-.292.498.498 0 0 0-.194-.219 1.118 1.118 0 0 0-.317-.123c-.334-.073-.76-.112-1.278-.119C8.073.444 7.32.517 6.985.676a1.27 1.27 0 0 0-.36.273c-.114.134-.13.207-.048.22.38.054.647.185.805.391l.057.11c.044.08.088.22.133.42.044.2.072.423.085.666.031.444.031.824 0 1.14-.032.317-.062.563-.09.74a1.44 1.44 0 0 1-.242.63.16.16 0 0 1-.047.045.733.733 0 0 1-.256.046c-.088 0-.195-.043-.321-.128a2.242 2.242 0 0 1-.393-.351 4.704 4.704 0 0 1-.46-.626c-.17-.267-.346-.584-.53-.949l-.15-.264a22.44 22.44 0 0 1-.389-.744c-.164-.325-.31-.64-.436-.945a.604.604 0 0 0-.227-.292l-.047-.027a.656.656 0 0 0-.151-.078A1.034 1.034 0 0 0 3.7.894L1.106.912c-.265 0-.445.058-.54.174l-.038.055a.286.286 0 0 0-.028.146c0 .067.019.149.057.246.378.858.79 1.685 1.235 2.482.445.797.832 1.44 1.16 1.925.328.487.662.947 1.003 1.378.341.432.567.71.677.83.11.123.197.214.26.275l.237.219c.152.146.374.32.667.524.294.204.619.405.976.603.356.197.771.359 1.244.483.474.125.934.175 1.383.151h1.088c.221-.018.388-.085.502-.2l.038-.046a.592.592 0 0 0 .07-.17.897.897 0 0 0 .034-.25 2.906 2.906 0 0 1 .061-.707c.047-.21.101-.368.161-.475a1.172 1.172 0 0 1 .365-.401.623.623 0 0 1 .075-.032c.152-.049.33-.002.535.141.206.143.398.32.578.53.18.21.396.445.648.707a4.4 4.4 0 0 0 .663.584l.19.11c.126.072.29.14.492.2.201.061.378.076.53.046l2.423-.037c.24 0 .426-.038.558-.114.133-.076.212-.16.237-.25a.682.682 0 0 0 .005-.311 1.117 1.117 0 0 0-.067-.242Z" fill="#474442"/></svg>