<svg width="87" height="106" viewBox="0 0 87 106" fill="none" xmlns="http://www.w3.org/2000/svg">
<path d="M13.9518 57.9492C13.4253 57.9492 13.1621 58.3452 13.1621 58.7412V64.9455C13.1621 70.6217 17.7688 75.2419 23.4284 75.2419C29.088 75.2419 33.6946 70.6217 33.6946 64.9455V58.7412C33.6946 58.2132 33.2998 57.9492 32.9049 57.9492C32.3785 57.9492 32.1152 58.3452 32.1152 58.7412V64.9455C32.1152 69.6977 28.2983 73.5258 23.56 73.5258C18.8217 73.5258 15.0048 69.6977 15.0048 64.9455V58.7412C14.8732 58.3452 14.4783 57.9492 13.9518 57.9492Z" fill="#E0DEDA"/>
<path d="M65.5469 34.0577C65.5469 33.5296 65.1521 33.2656 64.7572 33.2656C64.2307 33.2656 63.9675 33.6616 63.9675 34.0577V40.3939C63.9675 41.4499 63.7043 42.374 63.441 43.166L60.5454 38.2818C60.2822 37.8858 59.8873 37.7538 59.4925 37.8858L47.7784 42.11C47.5152 42.242 47.3835 42.374 47.2519 42.638L38.3018 67.1909C38.1702 67.4549 38.1702 67.5869 38.3018 67.8509C38.4335 68.1149 38.5651 68.2469 38.8283 68.2469L56.5969 74.8472C56.7285 74.8472 56.7285 74.8472 56.8601 74.8472C57.2549 74.8472 57.5182 74.5832 57.6498 74.3192L66.5999 49.7663C66.7315 49.5022 66.5999 49.2382 66.5999 49.1062L64.2307 44.8821C65.0205 43.562 65.5469 41.978 65.5469 40.2619V34.0577ZM65.0205 49.6342L56.4652 73.1311L40.2761 67.1909L48.8313 43.826L59.4925 39.8659L62.3881 44.8821C61.8616 45.5421 61.2035 46.2021 60.4138 46.5981C59.8873 45.5421 59.0976 44.7501 57.913 44.354C57.3866 44.222 56.9917 44.09 56.4652 44.09C54.6226 44.09 53.0431 45.2781 52.385 46.9941C51.5953 49.2382 52.7799 51.7463 55.0174 52.5384C55.5439 52.6704 55.9388 52.8024 56.4652 52.8024C58.3079 52.8024 59.8873 51.6143 60.5454 49.8983C60.677 49.3702 60.8087 48.8422 60.8087 48.3142C61.73 47.7862 62.6513 47.2582 63.3094 46.4661L65.0205 49.6342ZM56.0704 49.1062C56.3336 49.1062 56.4652 49.1062 56.7285 49.1062C57.5182 49.1062 58.1763 48.9742 58.8344 48.8422C58.8344 48.9742 58.8344 49.1062 58.7027 49.1062C58.3079 50.1623 57.3866 50.8223 56.202 50.8223C55.9388 50.8223 55.5439 50.8223 55.2807 50.6903C53.9645 50.1623 53.1748 48.7102 53.7012 47.2582C54.0961 46.2021 55.0174 45.5421 56.202 45.5421C56.4652 45.5421 56.8601 45.5421 57.1233 45.6741C57.7814 45.9381 58.3079 46.4661 58.5711 46.9941C57.913 47.1262 57.2549 47.2582 56.5969 47.2582C56.4652 47.2582 56.202 47.2582 56.0704 47.2582C55.5439 47.2582 55.149 47.5222 55.149 48.0502C55.2807 48.7102 55.6755 49.1062 56.0704 49.1062Z" fill="#E0DEDA"/>
<path d="M81.4717 23.6289C81.4717 23.2329 81.0768 22.8369 80.682 22.8369H65.5458V16.7646C65.5458 7.52428 58.0436 0 48.8302 0C39.6169 0 32.1147 7.52428 32.1147 16.7646V22.8369H16.8469C16.452 22.8369 16.0572 23.2329 16.0572 23.6289L14.6094 48.9738C14.6094 49.5019 15.0042 49.8979 15.3991 49.8979C15.9256 49.8979 16.3204 49.5019 16.3204 49.1058L17.6366 24.5529H31.983V27.325C31.983 27.853 32.3779 28.1171 32.7728 28.1171C33.2992 28.1171 33.5625 27.721 33.5625 27.325V24.5529H63.7032V27.325C63.7032 27.853 64.098 28.1171 64.4929 28.1171C65.0194 28.1171 65.2826 27.721 65.2826 27.325V24.5529H79.4974L84.7622 98.7397H53.8318C53.3053 98.7397 53.042 99.1357 53.042 99.5317C53.042 100.06 53.4369 100.324 53.8318 100.324H86.0784C86.3416 100.324 86.6048 100.192 86.7365 100.06C86.8681 99.9278 86.9997 99.6637 86.9997 99.3997L81.4717 23.6289ZM33.6941 22.8369V16.7646C33.6941 8.44832 40.4066 1.71606 48.6986 1.71606C56.9906 1.71606 63.8348 8.44832 63.8348 16.8966V22.9689H33.6941V22.8369Z" fill="#E0DEDA"/>
<path d="M46.9879 78.1464C46.4614 78.1464 46.1982 78.5424 46.1982 79.0704L47.9092 104.283H1.71104L4.60666 53.8575H35.9319C36.4584 53.8575 36.7216 53.4615 36.7216 53.0655C36.7216 52.5374 36.3268 52.2734 35.9319 52.2734H3.81694C3.42209 52.2734 3.02723 52.6695 3.02723 53.0655L0 105.075C0 105.339 0.13162 105.603 0.263239 105.735C0.394857 105.867 0.658095 105.999 0.921332 105.999H48.9622C49.2254 105.999 49.4887 105.867 49.6203 105.735C49.7519 105.603 49.8835 105.339 49.8835 105.075L48.0409 78.9384C47.9092 78.5424 47.5144 78.1464 46.9879 78.1464Z" fill="#E0DEDA"/>
</svg>
