<svg width="96" height="96" viewBox="0 0 96 96" fill="none" xmlns="http://www.w3.org/2000/svg">
<rect width="96" height="96" rx="16" fill="#F5F4F2"/>
<path d="M39.45 80.9545H39.9813V82H25V80.9545H25.5312C26.0271 80.9545 26.4875 80.7455 26.9125 80.3273C27.3375 79.9091 27.6917 79.4212 27.975 78.8636C28.3292 78.3061 28.5771 77.7136 28.7188 77.0864C28.8604 76.3894 28.9313 75.7621 28.9313 75.2045V19.4818C28.9313 18.9939 28.8604 18.4364 28.7188 17.8091C28.5771 17.1818 28.3292 16.5894 27.975 16.0318C27.6917 15.4742 27.3375 15.0212 26.9125 14.6727C26.4875 14.2545 26.0271 14.0455 25.5312 14.0455H25V13H43.4875C50.5708 13 56.025 14.3591 59.85 17.0773C63.7458 19.7955 65.6938 23.803 65.6938 29.1C65.6938 31.7485 65.2333 34.0833 64.3125 36.1045C63.4625 38.0561 62.2938 39.7636 60.8063 41.2273C59.3188 42.6212 57.5479 43.7712 55.4938 44.6773C53.5104 45.5136 51.3854 46.1409 49.1188 46.5591L56.7687 58.0591C58.6104 60.847 60.4875 63.6 62.4 66.3182C64.3125 68.9667 66.1896 71.7197 68.0312 74.5773C68.5271 75.2742 69.0583 76.0061 69.625 76.7727C70.2625 77.5394 70.9 78.2364 71.5375 78.8636C72.2458 79.4909 72.9542 80.0136 73.6625 80.4318C74.4417 80.7803 75.2208 80.9545 76 80.9545V82H71.4313C68.5979 82 66.2604 81.3379 64.4188 80.0136C62.6479 78.6197 61.1604 77.0167 59.9562 75.2045C56.7688 70.6045 53.5813 65.9348 50.3938 61.1955C47.2771 56.4561 44.1604 51.7864 41.0437 47.1864C40.2646 47.1167 39.4146 47.047 38.4937 46.9773C37.6437 46.8379 36.8292 46.6985 36.05 46.5591V75.2045C36.05 75.7621 36.1208 76.3894 36.2625 77.0864C36.4042 77.7136 36.6167 78.3061 36.9 78.8636C37.2542 79.4212 37.6083 79.9091 37.9625 80.3273C38.3875 80.7455 38.8833 80.9545 39.45 80.9545ZM36.05 16.5545V43.1091H36.5813C37.1479 43.1788 38.0333 43.2485 39.2375 43.3182C40.5125 43.3182 42.0708 43.3182 43.9125 43.3182C45.4 43.3182 46.9583 43.1091 48.5875 42.6909C50.2875 42.203 51.8458 41.4364 53.2625 40.3909C54.75 39.2758 55.9542 37.847 56.875 36.1045C57.8667 34.3621 58.3625 32.1667 58.3625 29.5182C58.3625 26.8697 57.8312 24.7091 56.7687 23.0364C55.7771 21.3636 54.3604 20.0394 52.5187 19.0636C50.7479 18.0879 48.5875 17.4258 46.0375 17.0773C43.4875 16.7288 40.6896 16.5545 37.6437 16.5545H36.05Z" fill="#474442"/>
</svg>
